/* XPM */
static char *b0d78c270c0b42d0e5f3edeb03f2106a4Z85ZLzWOywO2E9Y[] = {
/* columns rows colors chars-per-pixel */
"25 25 2 1 ",
"  c black",
". c #B2FF59",
/* pixels */
".........................",
".........................",
".................    ....",
".................    ....",
".................    ....",
".................    ....",
".................    ....",
".................    ....",
".................    ....",
".................    ....",
".................    ....",
".................    ....",
".................    ....",
".................    ....",
".................    ....",
".................    ....",
".................    ....",
".................    ....",
".................    ....",
".................    ....",
".................    ....",
".................    ....",
".................    ....",
".........................",
"........................."
};
