/* XPM */
static char *_4c7461d882642ee85ba79b92ce160fbu40rGnz2UwUX2WP9[] = {
/* columns rows colors chars-per-pixel */
"25 25 2 1 ",
"  c black",
". c #B2FF59",
/* pixels */
".........................",
".........................",
"....                 ....",
"....                 ....",
"....                 ....",
"....                 ....",
".................    ....",
".................    ....",
".................    ....",
".................    ....",
".................    ....",
"....                 ....",
"....                 ....",
"....                 ....",
"....    .................",
"....    .................",
"....    .................",
"....    .................",
"....    .................",
"....                 ....",
"....                 ....",
"....                 ....",
"....                 ....",
".........................",
"........................."
};
