/* XPM */
static char *result[] = {
/* columns rows colors chars-per-pixel */
"25 25 2 1 ",
"  c black",
". c #B2FF59",
/* pixels */
".........................",
".........................",
"...                  ....",
"...                  ....",
"...                  ....",
"...                  ....",
"...    ..........    ....",
"...    ..........    ....",
"...    ..........    ....",
"...    ..........    ....",
"...    ..........    ....",
"...                  ....",
"...                  ....",
"...                  ....",
"...                  ....",
".................    ....",
".................    ....",
".................    ....",
".................    ....",
".................    ....",
".................    ....",
".................    ....",
".................    ....",
".........................",
"........................."
};
