/* XPM */
static char *bc40ea2bf04a464eafc58cf114fbdfc058JfGdLH2fGTrEnc[] = {
/* columns rows colors chars-per-pixel */
"100 100 6 1 ",
"  c None",
". c #C62828",
"X c #FF5722",
"o c #4A148C",
"O c #673AB7",
"+ c #9C27B0",
/* pixels */
"                                                                                                    ",
"                                                                                                    ",
"                                                                                                    ",
"                                                                                                    ",
"                                                                                                    ",
"                                                                                                    ",
"                                                                                                    ",
"                                                                                                    ",
"                                                                                                    ",
"                                                                                                    ",
"                                                                                                    ",
"                                                                                                    ",
"                                                           OOOOO                                    ",
"                                                       OOOO     OO                                  ",
"                                                      O          X                                  ",
"                                                     O                                              ",
"                                                    O                                               ",
"                                                    O                                               ",
"                                                   O                                                ",
"                                      OOOO         O                                                ",
"                                     O    OO       X     OOOOOOOO                                   ",
"                                           O       X                                                ",
"                                            X      O   O                                            ",
"                                            O       O  O                                            ",
"                                            O        O O                                            ",
"                                            O        OO                                             ",
"                                            X        OO           OOOOOOOO                          ",
"                                          OOX         XX         O       O                          ",
"                               OOO          XOO       OO        O                                   ",
"                              O   OOO        O O     O  O       O                                   ",
"                              O      X      O  O     O  O      XX                                   ",
"                              O       O     O  O      OO      O                                     ",
"                              O       O     O  O      X      O                                      ",
"                              O       O    O    X      O     O                                      ",
"                              X       O    O    XX O    O    X                                      ",
"                             O        O   O     O O     O    O                                      ",
"                             O    OO  O         OO      X    O                                      ",
"                             O  OOO OOO         O        O   O                                      ",
"                             O        XXO       OO      OO    O                OOOOOOO              ",
"                           OO        OOO        OO     O      O               O       OO            ",
"                                     OOO       X  O   O        O           XOO         O            ",
"                                     O OOO     X   O O          O       OOO                         ",
"                                      O O     OX  OOO           O     OO                            ",
"                                      OXX  O O  OO  O           O  OOO                              ",
"                                        O  OO   OO  O           OOO                                 ",
"                                        OOO  O    O O        XOOO                                   ",
"                                        O O  O    O  O     OOX  O                                   ",
"                                        O  O  O    O O  OOO    O                                    ",
"                                       O    X O     OOOO      X                                     ",
"                                      O     oOoOooooOO       O                                      ",
"                                     O   oooooOOooooOOooo    O                                      ",
"                                     O oooooo+OO++++OOooooo O                                       ",
"                                    Oooooo++++OOO+++OOO+oooOo                                       ",
"                                    Oooo++++++OOO++++O+O++Oooo                                      ",
"                                   oOo++++++++OOO++++O+O+O++ooo                                     ",
"                                  oOo+++++++++OO+O++O+OOO++++ooo                                    ",
"                                 ooO+++++++++O++OO+OOO+O+O++++ooo                                   ",
"                                oooO++++++++OO++OOO+OO++O+O++++ooo                                  ",
"                                oo++O+++++++OO++OOO+++OOO++O++++oo                                  ",
"                               ooo++O++++++++O++OOO+++++O++O++++ooo                                 ",
"                              ooo++++O+++++++O++OOOO+++OO++O+++++ooo                                ",
"                              oo+++++OO+++++++O+O+++OOO++O++O+++++oo                                ",
"                              oo++++++O+++++++OOO+++OOO++O++O+++++oo                                ",
"                             ooo+++++++O++++++OOOOOO++O++O++O+++++ooo                               ",
"                             oo+++++++++O++++OOXOXXXX+O++O++O++++++oo                               ",
"                             oo++++++++++OO+OOXOOXXXXXO++O++O++++++oo                               ",
"                             oo+++X++++++++OOXXO.X...OX++O+++O+++++oo                               ",
"                             oo+++++++++++++OOXO....XOXXO+++O++++++oo                               ",
"                             oo++++++++++++OXO.OO...O.OOOOOOO++++++oo                               ",
"                             oo+++++++++++OOXXOXOOOOOOOO+++++++++++oo                               ",
"                             oo+++++++++++++XXXOO.OOO.XX+++++++++++oo                               ",
"                             oo++++++++++++++XXXOOOOOXX++++++++++++oo                               ",
"                             ooo++++++++++++++XXXXXXXX++++++++++++ooo                               ",
"                              oo++++X++++++++++XXXXXX+++++++++++++oo                                ",
"                              oo+++++++++++++++++++++++++++++X++++oo                                ",
"                              ooo++++++++++++++++++++++++++++++++ooo                                ",
"                               ooo+++++++++XX+++++++++++++++++++ooo                                 ",
"                                oo++++++++++++++++++++++++++++++oo                                  ",
"                                ooo++++++++++++++++++++++++++++ooo                                  ",
"                                 ooo++++++++++++++++++++++++++ooo                                   ",
"                                  ooo++++++++++++++++++++++++ooo                                    ",
"                                   ooo++++++++++++++++++++++ooo                                     ",
"                                    oooo++++++++++++X+++++oooo                                      ",
"                                     ooooo+++X++++++++++ooooo                                       ",
"                                       oooooo++++++++oooooo                                         ",
"                                         oooooooooooooooo                                           ",
"                                            oooooooooo                                              ",
"                                                                                                    ",
"                                                                                                    ",
"                                                                                                    ",
"                                                                                                    ",
"                                                                                                    ",
"                                                                                                    ",
"                                                                                                    ",
"                                                                                                    ",
"                                                                                                    ",
"                                                                                                    ",
"                                                                                                    ",
"                                                                                                    ",
"                                                                                                    "
};
