/* XPM */
static char *e9617d9135a048ccaa7575724c750bebjGFVoaIIVEtBS2pK[] = {
/* columns rows colors chars-per-pixel */
"100 100 8 1 ",
"  c None",
". c #2A1819",
"X c #8D3035",
"o c #AC383E",
"O c #3E8C1E",
"+ c #CEA97D",
"@ c #FECE98",
"# c white",
/* pixels */
"                                                                                                    ",
"                                                                                                    ",
"             ..................................................................                     ",
"             ..................................................................                     ",
"             ..................................................................                     ",
"             ..................................................................                     ",
"             ..................................................................                     ",
"       ......ooooooooooooooooooooooooooooooooooooooXXXXXXXXXXXXXXXXXXXXXX...........                ",
"       ......ooooooooooooooooooooooooooooooooooooooXXXXXXXXXXXXXXXXXXXXXX...........                ",
"       ......ooooooooooooooooooooooooooooooooooooooXXXXXXXXXXXXXXXXXXXXXX...........                ",
"       ......ooooooooooooooooooooooooooooooooooooooXXXXXXXXXXXXXXXXXXXXXX...........                ",
"       ......ooooooooooooooooooooooooooooooooooooooXXXXXXXXXXXXXXXXXXXXXX...........                ",
"       ......ooooooooooooooooooooooooooooooooooooooXXXXXXXXXXXXXXXXXXXXXX...........                ",
"       ......oooooXXXXXXXXXXXXXXXXXoooooooooooXXXXXXXXXXXXXXXXXXXXXXXXXXX......OOOOO......          ",
"       ......oooooXXXXXXXXXXXXXXXXXoooooooooooXXXXXXXXXXXXXXXXXXXXXXXXXXX......OOOOO......          ",
"       ......oooooXXXXXXXXXXXXXXXXXoooooooooooXXXXXXXXXXXXXXXXXXXXXXXXXXX......OOOOO......          ",
"       ......oooooXXXXXXXXXXXXXXXXXoooooooooooXXXXXXXXXXXXXXXXXXXXXXXXXXX......OOOOO......          ",
"       ......oooooXXXXXXXXXXXXXXXXXoooooooooooXXXXXXXXXXXXXXXXXXXXXXXXXXX......OOOOO......          ",
"       ...........ooooooooooooooooo.....ooooooXXXXX######.....######XXXXX......OOOOO......          ",
"       ...........ooooooooooooooooo.....ooooooXXXXX######.....######XXXXX......OOOOO......          ",
"       ...........ooooooooooooooooo.....ooooooXXXXX######.....######XXXXX......OOOOO......          ",
"       ...........ooooooooooooooooo.....ooooooXXXXX######.....######XXXXX......OOOOO......          ",
"       ...........ooooooooooooooooo.....ooooooXXXXX######.....######XXXXX......OOOOO......          ",
"       ...........ooooooooooooooooo.....ooooooXXXXX######.....######XXXXX......OOOOO......          ",
"       ......oooooooooooooooooooooooooooooooooXXXXX######.....######XXXXX.................          ",
"       ......oooooooooooooooooooooooooooooooooXXXXX######.....######XXXXX.................          ",
"       ......oooooooooooooooooooooooooooooooooXXXXX######.....######XXXXX.................          ",
"       ......oooooooooooooooooooooooooooooooooXXXXX######.....######XXXXX.................          ",
"       ......oooooooooooooooooooooooooooooooooXXXXX######.....######XXXXX.................          ",
"       ......oooooooooooooooooooooooooooooooooXXXXX######.....######.....OOOOOO.....                ",
"       ......oooooooooooooooooooooooooooooooooXXXXX######.....######.....OOOOOO.....                ",
"       ......oooooooooooooooooooooooooooooooooXXXXX######.....######.....OOOOOO.....                ",
"       ......oooooooooooooooooooooooooooooooooXXXXX######.....######.....OOOOOO.....                ",
"       ......oooooooooooooooooooooooooooooooooXXXXX######.....######.....OOOOOO.....                ",
"       ......oooooooooooooooooooooooooooooooooXXXXX######.....######.....OOOOOO.....                ",
"       ......oooooooooooooooooooooooooooooooooXXXXXXXXXXXXXXXXXXXXXX.....OOOOOO.....                ",
"       ......oooooooooooooooooooooooooooooooooXXXXXXXXXXXXXXXXXXXXXX.....OOOOOO.....                ",
"       ......oooooooooooooooooooooooooooooooooXXXXXXXXXXXXXXXXXXXXXX.....OOOOOO.....                ",
"       ......oooooooooooooooooooooooooooooooooXXXXXXXXXXXXXXXXXXXXXX.....OOOOOO.....                ",
"       ......oooooooooooooooooooooooooooooooooXXXXXXXXXXXXXXXXXXXXXX.....OOOOOO.....                ",
"       ............................oooooXXXXXXXXXXXXXXXXXXXXXXXXXXXX................                ",
"       ............................oooooXXXXXXXXXXXXXXXXXXXXXXXXXXXX................                ",
"       ............................oooooXXXXXXXXXXXXXXXXXXXXXXXXXXXX................                ",
"       ............................oooooXXXXXXXXXXXXXXXXXXXXXXXXXXXX................                ",
"       ............................oooooXXXXXXXXXXXXXXXXXXXXXXXXXXXX................                ",
"       ............................oooooXXXXXXXXXXXXXXXXXXXXXXXXXXXX................                ",
"                                   .....ooooooooooooooooooooooXXXXXXXXXXX...........                ",
"                                   .....ooooooooooooooooooooooXXXXXXXXXXX...........                ",
"                                   .....ooooooooooooooooooooooXXXXXXXXXXX...........                ",
"                                   .....ooooooooooooooooooooooXXXXXXXXXXX...........                ",
"                                   .....ooooooooooooooooooooooXXXXXXXXXXX...........                ",
"                                   .....@@@@@@@@@@@@@@@@@@@@@@++++++XXXXX......                     ",
"                                   .....@@@@@@@@@@@@@@@@@@@@@@++++++XXXXX......                     ",
"                                   .....@@@@@@@@@@@@@@@@@@@@@@++++++XXXXX......                     ",
"                                   .....@@@@@@@@@@@@@@@@@@@@@@++++++XXXXX......                     ",
"                                   .....@@@@@@@@@@@@@@@@@@@@@@++++++XXXXX......                     ",
"                                   .....@@@@@@@@@@@@@@@@@@@@@@++++++XXXXX......                     ",
"                                   .....@@@@@@@@@@@@@@@@@@@@@@++++++XXXXX.................          ",
"                                   .....@@@@@@@@@@@@@@@@@@@@@@++++++XXXXX.................          ",
"                                   .....@@@@@@@@@@@@@@@@@@@@@@++++++XXXXX.................          ",
"                                   .....@@@@@@@@@@@@@@@@@@@@@@++++++XXXXX.................          ",
"                                   .....@@@@@@@@@@@@@@@@@@@@@@++++++XXXXX.................          ",
"                                   .....@@@@@@@@@@@@@@@@@@@@@@++++++XXXXXooooooooooo......          ",
"                                   .....@@@@@@@@@@@@@@@@@@@@@@++++++XXXXXooooooooooo......          ",
"                                   .....@@@@@@@@@@@@@@@@@@@@@@++++++XXXXXooooooooooo......          ",
"                                   .....@@@@@@@@@@@@@@@@@@@@@@++++++XXXXXooooooooooo......          ",
"                                   .....@@@@@@@@@@@@@@@@@@@@@@++++++XXXXXooooooooooo......          ",
"                                   .....@@@@@@@@@@@@@@@@@@@@@@++++++XXXXXooooooooooo......          ",
"                                   .....oooooo+++++++++++oooooXXXXXXXXXXXXXXXXX...........          ",
"                                   .....oooooo+++++++++++oooooXXXXXXXXXXXXXXXXX...........          ",
"                                   .....oooooo+++++++++++oooooXXXXXXXXXXXXXXXXX...........          ",
"                                   .....oooooo+++++++++++oooooXXXXXXXXXXXXXXXXX...........          ",
"                                   .....oooooo+++++++++++oooooXXXXXXXXXXXXXXXXX...........          ",
"                                   .....ooooooooooooooooooooooooooooXXXXX...........                ",
"                                   .....ooooooooooooooooooooooooooooXXXXX...........                ",
"                                   .....ooooooooooooooooooooooooooooXXXXX...........                ",
"                                   .....ooooooooooooooooooooooooooooXXXXX...........                ",
"                                   .....ooooooooooooooooooooooooooooXXXXX...........                ",
"                                   .....ooooooooooooooooooooooooooooXXXXX...........                ",
"                                   .....ooooooXXXXX...........ooooooXXXXX......                     ",
"                                   .....ooooooXXXXX...........ooooooXXXXX......                     ",
"                                   .....ooooooXXXXX...........ooooooXXXXX......                     ",
"                                   .....ooooooXXXXX...........ooooooXXXXX......                     ",
"                                   .....ooooooXXXXX...........ooooooXXXXX......                     ",
"                                        ......XXXXX......     ......XXXXX......                     ",
"                                        ......XXXXX......     ......XXXXX......                     ",
"                                        ......XXXXX......     ......XXXXX......                     ",
"                                        ......XXXXX......     ......XXXXX......                     ",
"                                        ......XXXXX......     ......XXXXX......                     ",
"                                        ......XXXXX......     ......XXXXX......                     ",
"                                              ...........           ...........                     ",
"                                              ...........           ...........                     ",
"                                              ...........           ...........                     ",
"                                              ...........           ...........                     ",
"                                              ...........           ...........                     ",
"                                              ...........           ...........                     ",
"                                                                                                    ",
"                                                                                                    ",
"                                                                                                    ",
"                                                                                                    "
};
