/* XPM */
static char *_2b70774706d431ddd1d879465c3525cyRppm3EPwV3zFSEx[] = {
/* columns rows colors chars-per-pixel */
"100 100 15 1 ",
"  c None",
". c #37474F",
"X c #455A64",
"o c #546E7A",
"O c #D50000",
"+ c #4CAF50",
"@ c #FF9800",
"# c #FFEB3B",
"$ c #8BC34A",
"% c #607D8B",
"& c #9C27B0",
"* c #78909C",
"= c #00BCD4",
"- c #2196F3",
"; c #90A4AE",
/* pixels */
"                                                                                                    ",
"                                                                                                    ",
"                                                                                                    ",
"                                                                                                    ",
"                                                                                                    ",
"                                                                                                    ",
"                                                                                                    ",
"                                                                                                    ",
"                                                                                                    ",
"                                                                                                    ",
"                                                                                                    ",
"                                                                                                    ",
"                                                                                                    ",
"                  &&&&&+ &&&&&&&&&+&&++&&&&&&&&&+&&&&&&&&&&&&&&&&&&&&&+&&&&&&&  &$&                 ",
"                &&.....&+..........+..++........++....................+.......&&$$.&&               ",
"               &........+...........+...+........+.....$.$............+.........$....&              ",
"              &.--------+-----------+----+-------+-----$-$------------+-........$....&              ",
"             &..--------+-----------+-----++-----+------$-------------+-........$.....&             ",
"             &..--XXXXXXX+XXXXXXXXXXX+XXXXXX+XXXXX+XXXXX$XXXXXXXXXXXXX+-........$.....&             ",
"            &...--XXXXXX+XXXXXXXXXXXX+XXXXXXX+XXXXX+XXXX$$XXXXXXXXXXXX+-.......$.......&            ",
"            &...--XXXXXX+XXXXXXXXXXXX+XXXXXXXX+XXXXX+XX$$$XXXXXXXXXXX+--.......$.......&            ",
"           &....--XXXXXX+XXXXXXXXXXX+XXXXXXXXXX+XXXXX+X$XX$XXXXXXXXX+X--.......$.......&            ",
"           &....--XX===+============+==========+======+$===$=======X+X--.......$........&           ",
"           &....--XX===+===========+============+======$====$======+XX--......$.........&           ",
"          &.....--XX==o+oooooooooo+  ooooooooooo+ooooo$o+oooo$ooo==+XX--......$.........&           ",
"          &.....--XX==+oooooooooo+ooo  ooooooooo+ooooo$oo+oooo$oo=+XXX--......$.........&           ",
"          &.....--XX=+oooooooooo+oooooo  ooooooo+ooooo$ooo+ooo$oo+=XXX--.....$..........&           ",
"          &.....--XX=+ooooooooo+ooooooooo oooooo+ooooo$oooo+ooo$+==XXX--.....$..........&           ",
"          &.....--XX+=ooo$$$$$+$$$$$$$$$$$$$$$$$+$$$$$$$$$$$+$o+$==XXX--.....$..........&&          ",
"          &.....--XX=+ooo$$$$+$$$$$$$$$$$$$$$$$+$$$$$$$$$$$$$++oo$=XXX--....$..........$.&          ",
"          &.....--XX==+oo$$%+%%%%%%%   %%%%%%%%+%%%%%$%%%%%%$+ooo$=XXX--....$..........$.&          ",
"          &.....--XX==o+o$$+%%%%%   %%%%%%%%%%+%%%%%$%%%%%%%+$+oo=$XXX--....$..........$.&          ",
"          &.....--XX==oo+$+%%%%% %%%%%%%%%%%%+%%%%%%$%%%%%%+$$o+o=$XXX--...$..........$..&          ",
"          &.....--XX==ooo++%%%%%%%%%%%%%%%%%%+%%%%%$%%%%%++%$$oo+==$XX--...$........$$...&          ",
"          &.....--XX==ooo+++%%%%%%%%%%%%%%%%+%%%%%$%%%%++%%%$$oo+==$XX--...$.......$$....&          ",
"          &.....--XX==ooo+$%+%%% %%%%%%%%%%%+%%%%$%%%%%+%%%%$$oo+==X$X--..$........$.....&          ",
"          &.....--XX==oo+$$%%+%%%  %%%%%%%%+%%%$$%%%%%+%%%%%$$oo+==X$X--..$........$.....&          ",
"          &.....--XX==oo+$$%%%+%%##########+#$$######+%%%%%%$$oo+==X$X--.$........$......&          ",
"          &.....--XX==o+o$$$$$$$$$$$$$$$##$$$########+%%%%%%$$oo+==XX$--.$........$......&          ",
"          &.....--XX==o+o$$%%%%+%##*****$$*********##%+%%%%%$$oo+==XX$--.$........$......&          ",
"          &.....--XX==o+$$$%%%%+%##******+*********##%%+%%%%$$oo+==XXX$-.$........$......&          ",
"          &.....--XX==oo$$$%%%%%+##*****+**********##%%+%%%%$$oo+==XXX$-$.........$......&          ",
"          &.....--XX==o$+$$%%%%%+##*****+**********##%%%+%%%$$oo+==XXX$-$........$.......&          ",
"          &.....--XX==o$o+$%%%%%+##*****+@@@@******##%%%+%%%$$oo+==XXX$-$.......$$.......&          ",
"          &.....--XX==o$o$+%%%%%+##****+@@@@@@*****##%%%+%%%$$o+o==XXX-$$.......$........&          ",
"          &.....--XX==o$o$$+%%%%+##****+@@;;@@@****##%%%%+%%$$o+o==XXX-$........$........&          ",
"          &.....--XX==$oo$$%+%%%+##****+@;;;;@@****##%%%%+%%$$+oo==XXX-$........$........&          ",
"          &.....--XX==$oo$$%+%%%+##****+@;OO;@@****##%%%%%+%$+ooo==XXX-$........$........&          ",
"          &.....--XX==$oo$$%%+%%+##****@+;OO;@@****##%%%%%+%$+ooo==XXX$$.......$.........&          ",
"          $$....--XX==$oo$$%%%+%+##****@@+;;;@@****##%%%%%%++$ooo==XXX$$.......$.........&          ",
"          &.$$$.--XX==$oo$$%%%%++##****@@@+;@@@****##%%%%%%++$ooo==XX$-$.......$.........&          ",
"          &....$--XX=$ooo$$%%%%%+##*****@@+@@@*****##%%%%%%+$$ooo==XX$-$.......$.........&          ",
"          &.....$-XX=$ooo$$%%%%%+##******@@+@******##%%%%%%++$ooo==X$X-$.......$.........&          ",
"          &.....-$XX$=ooo$$%%%%+%+#********+*******##%%%%%+%+$ooo==X$X-$.......$.........&          ",
"          &.....-$XX$=ooo$$%%%%+%+#*********+******##%%%%%+%$+ooo==$XX$-.......$.........&          ",
"          &.....--$X$=ooo$$%%%%+%#+*********+******##%%%%+%%$$+oo==$XX$-.......$.........&          ",
"          &.....--$X$=ooo$$%%%%+%#+##########+#######%%%%+%%$$o+o==$XX$-.......$.........&          ",
"          &.....--X$$=ooo$$%%%%+%#+###########+######$$$+%%%$$o+o==$XX$-......$..........&          ",
"          &.....--X$$=ooo$$%%%%+%%+%%%%%%%%%%%%+%%%%%%$%$$%%$$o+o==$XX$-......$..........&          ",
"          &.....--X$$=ooo$$%%%+%%%+%%%%%%%%%%%%+%%%%%%$+%%$%$$o+o==$X$--......$..........&          ",
"          &.....--X$==ooo$$%%%+%%+%%%%%%%%%%%%%+%%%%%%%$%%%$$$oo+=$XX$--.....$...........&          ",
"          &.....--X$==ooo$$%%%+%+%%%%%%%%%%%%%%+%%%%%%+$%%%%$$oo+=$X$X--.....$...........&          ",
"          &.....--$$==ooo$$%%%++%%%%%%%%%%%%%%%%+%%%%%+%$%%%$$$$$$=$XX--.....$...........&          ",
"          &.....--$$==ooo$$%%%+%%%%%%%%%%%%%%%%%+%%%%%+%$%%%$$oo$$$XXX--.....$...........&          ",
"          &.....-$X$==ooo$$%%++%%%%%%%%%%%%%%%%%+%%%%%+%%$%%$$oo$==XXX--....$............&          ",
"          &.....-$X$==ooo$$%+%+%%%%%%%%%%%%%%%%%+%%%%%%+%$%%$$o$+==XXX--....$............&          ",
"          &.....$-X$==ooo$$$++$$$$$$$$$$$$$$$$$$+$$$$$$+$$$$$$$$+==XXX--....$............&          ",
"          &.....$-$X==ooo$$+$+$$$$$$$$$$$$$$$$$$+$$$$$$$+$$$$$o$$+=XXX--....$............&          ",
"          &.....$-$X==ooooo+o+oooooooooooooooooo+ooooooo+oo$ooooo$$XXX--....$............&          ",
"          &.....$-$X==oooo+oo+oooooooooooooooooo+oooooooo+oo$oooo+=$$X--....$............&          ",
"          &.....$-$X=====+===+==================+========+==$====+=XX$--....$............&          ",
"          &.....$-$X=====+===+==================+========+===$===+=XXX$$...$.............&          ",
"          &.....$-$XXXX++XXX+XXXXXXXXXXXXXXXXXXX+XXXXXXXXX+XX$XXXX+XXX$$$..$.............&          ",
"          &.....$-$XXX+XXXXX+XXXXXXXXXXXXXXXXXXX+XXXXXXXXX+XXX$XXX+XX$-$.$$..............&          ",
"          &.....-$$--+-----+-------------------++---------+---$---+-$---$.$..............&          ",
"          &.....--$$-+----+--------------------+----------+----$--$$----.$...............&          ",
"          &.......$$+....+.....................+..........+....$$$..+.....$..............&          ",
"          &.......$.$....+.....................+..........+....$$....+....$..............&          ",
"          &.......$.$$..+.....................+..........+....$..$....+....$.............&          ",
"          &.......$.+$..+.....................+..........+...$....$...+....$.............&          ",
"          &.......$.+.$+......................+..........+...$....$....+...$.............&          ",
"          &.......$..+$+......................+.........+...$......$...+....$............&          ",
"          &.......$..+$+......................+.........+...$.......$...+...$............&          ",
"          &........$.+$+......................+.........+...$........$..+...$............&          ",
"          &........$.+$+.....................+..........+..$.........$...+..$............&          ",
"          &.........$+$+.....................+.........+...$..........$..+..$............&          ",
"          &..........$$+.....................+.........+...$...........$.+..$............&          ",
"          &..........$$++....................+.........+...$............$.+.$............&          ",
"          &..........$$..+..................+.........+....$.............$+.$............&          ",
"          &..........$.$..++................+.........+....$..............$.$............&          ",
"          &.........$...$...+...............+.........+....$..............+$$............&          ",
"          &.........$...$....++.............+........+.....$...............+$............&          ",
"          &........$....+$.....+...........+.........+.....$...............$.$...........&          ",
"          &.......$......$......++.........+........+......$...............$..$$.........&          ",
"          &.......$......+$$......+........+........+......$...............$....$........&          ",
"          &......$.......+..$$.....++.....+.........+......$..............$+.....$.......&          ",
"          &.....$........+....$......+....+........+........$.............$+......$......&          ",
"          &....$...............$$.........+........+........$............$.+.......$.....&          ",
"          &....$.................$$......+.........+........$$...........$.+........$$...&          ",
"          &&&&&&&&&&&&&&&&&&&&&&&&&$$$$$$$$$$$$&+++&&&&&&&&&&&$&&&&$$$$$$++&&&&&&&&&&$$&&&          "
};
