/* XPM */
static char *cc1d982a667045a1858fd05abd080336bmUJ7uovNt8Nhp0L[] = {
/* columns rows colors chars-per-pixel */
"100 100 8 1 ",
"  c #380079",
". c #B7141F",
"X c #FC3F1B",
"o c #4CAF50",
"O c #7ABA3A",
"+ c #009688",
"@ c #5321A8",
"# c #8800A0",
/* pixels */
"++++++++++++++++++++++++++++++++++++++++++++++++++++++++++++++++++++++++++++++++++++++++++++++++++++",
"++++++++++++++++++++++++++++++++++++++++++++++++++++++++++++++++++++++++++++++++++++++++++++++++++++",
"++++++++++++++++++++++++++++++++++++++++++++++++++++++++++++++++++++++++++++++++++++++++++++++++++++",
"++++oooooOoooooooo+ooooooooooooooOoooooooooooo++oooooooooooo+ooooOooooooooo+ooooooooooooooooooo+++++",
"++++oooooOooooooooo+ooooooooooooooOooooooooooooo+ooooooooooo+oooooOOooooooo+ooooooooooooooooooo+++++",
"++++oooooOooooooooo+ooooooooooooooooooooooooooooo++ooooooooo+oooooooOooooooo+ooooooooooooooooo+o++++",
"++++ooooooOoooooooo+ooooooooooooooooOoooooooooooooo+oooooooo+ooooooooOoooooo+oooooooooooooooo+oo++++",
"++++ooooooOoooooooo+ooooooooooooooooOooooooooooooooo@@@@@ooo+oooooooooOooooo+ooooooooooooooo+ooo++++",
"++++ooooooOoooooooo+oooooooooooooooooOoooooooooo@@@@+oooo@@o+oooooooooOooooo+ooooooooooooooo+ooo++++",
"++++ooooooOoooooo++ooooooooooooooooooOooooooooo@ooooo+oooo@o+ooooooooooOoooo+ooooooooooooo++oooo++++",
"++++oooooooOoooo+oooooooooooooooooooooOooooooo@ooooooooooooo+ooooooooooooooooooooooooooo++oooooo++++",
"++++oooooooOoooo+ooooooooooooooooooooooOooooo@oooooooooooooooooooooooooooOoo+ooooooooooooooooooo++++",
"++++oooooooOooo+ooooooooooooooooooooooooooooo@oooooooo+ooooo+ooooooooooooOo+ooooooooo+oooooooooo++++",
"++++oooooooOooo+ooooooooooooooooooooooooOooo@oooooooo+ooooooooooooooooooooO+ooooooo++ooooooooooo++++",
"++++ooooooOooo+oooooooooooooooo@@@@ooooooOoo@oooooooo+oooooo+oooooooooooooOoooooo++ooooooooooooo++++",
"++++ooooooOooo+ooooooooooooooo@oooo@@ooooOooXooooo@@@@@@@@oo+oooooooooooooOooooooo++oooooooooooo++++",
"++++ooooooOooooooooooooooooooooooooo@oooooOoXooooooo+ooooooo+ooooooooooooo+Oooooooo+oooooooooooo++++",
"++++oooooooooo+ooooooooooooooooooooooXooooOo@ooo@ooo+ooooooo+oooooooooooo+oOooooooo+oooooooooooo++++",
"++++ooooooOooo+oooooooooooooooooooooo@oooooOo@oo@oo+oooooooo+ooooooooooo+ooOoooooooo+ooooooooooo++++",
"++++oooooOooo+ooooooooooooooooooooooo@oooooOoo@o@oo+oooooooo+ooooooooooo+oooOooooooo+ooooooooooo++++",
"++++oooooOooo+ooooooooooooooooooooooo@oooooooo@@oo+oooooooo+ooooooooooooooooOooooooo+ooooooooooo++++",
"++++oooooOooo+oooooooooooooooooooooooXooooooOo@@o+ooooooooo@@@@@@@@oooooooooOooooooo+ooooooooooo++++",
"++++oooooOooo+ooooooooooooooooooooo@@XooooooOooXX+oooooooo@ooooooo@oooo+ooooOooooooo+ooooooooooo++++",
"++++oooooOooo+oooooooooo@@@ooooooooooX@@ooooOoo@@oooooooo@ooooooooooooo+ooooOooooooo+ooooooooooo++++",
"++++ooooooOoo+ooooooooo@ooo@@@oooooooo@o@ooooO@o+@oooooo+@ooooooooooooo+ooooOoooooooo+oooooooooo++++",
"+++ooooooooOo+ooooooooo@oooooo@oooooo@oo@ooooo@+o@ooooo+XXooooooooooooo+ooooOoooooooo+oooooooooo++++",
"+++oooooooooO+ooooooooo@ooooooo@ooooo@oo@oooooo@@oooooo@ooooooooooooooo+ooooOoooooooo+oooooooooo++++",
"+++ooooooooooOooooooooo@ooooooo@ooooo@oo@oooooo+Ooooo+@ooooooooooooooooo+ooooooooooo+ooooooooooo++++",
"+++ooooooooooo+oooooooo@ooooooo@oooo@ooooXoooooo@OO++o@ooooooooooooooooo+oooOooooooooooooooooooo++++",
"+++oooooooooooOoooooooo@ooooooo@oooo@ooooXXo@o+oo@+OOOXoooooooooooooooooo+ooOoooooo+ooooooooooooo+++",
"+++ooooooooooooOoooooo@oooooooo@ooo@ooooo@o@oo+oo@oooo@oooooooooooooooooo+ooooooooo+ooooooooooooo+++",
"+++oooooooooooo+oooooo@oooo@@oo@ooooooooo@@oo+o+oooooo@OOOoooooooooooooooo+ooOoooo+oooooooooooooo+++",
"+++ooooooooooooooOoooo@oo@@@o@@@ooooooooo@ooo++ooo@ooo@oooOOoooooooooooooo+ooooooo+oooooooooooooo+++",
"+++oooooooooooooooOooo@ooooooooXX@ooooooo@@+++ooo@@oooo@ooooOOoooooooooo@@@@@@@oo+ooooooooooooooo+++",
"+++oooooooooooooo+oO@@oooooooo@@@oooooooo@@oo+oo@oooooo@ooooooooooooooo@ooooooo@@+ooooooooooooooo+++",
"+++oooooooooooooo+ooOooooooooo@@@oooooooX+o@o+o@oooooooo@ooooooOOooo@@@oooo+oooo@oooooooooooooooo+++",
"+++ooooooooooooooo+ooOOooooooo@o@@@oooooXooo@+@oooooooooo@ooooooo@@@oooooooo+ooo+Oooooooooooooooo+++",
"+++ooooooooooooooo+ooooOooooooo@o@ooooo@Xoo@@@ooooooooooo@ooooo@@ooooooooooo+oo+ooOoooooooooooooo+++",
"+++ooooooooooooooo+oooooOoooooo@XXoo@o@oo@@oo@ooooooooooo@oo@@@ooooOoooooooo+o+oooOoooooooooooooo+++",
"+++ooooooooooooooo+ooooooOooooooo@oo@@+oo@@oo@ooooooooooo@@@oooooooOooooooooo+oooooOooooooooooooo+++",
"+++oooooooooooooooo+ooooooOOooooo@@@oo@+ooo@o@ooooooooX@@@ooooooooooOooooooo++oooooOooooooooooooo+++",
"+++ooooooooooooooooo+oooooooOoooo@o@oo@oooo@oo@ooooo@@Xoo@ooooooooooOoooooo+o+ooooooOoooooooooooo+++",
"+++ooooooooooooooooo+ooooooooOooo@oo@oo@oooo@o@oo@@@oooo@ooooooooooooOoooo+oo+oooooooOooooooooooo+++",
"+++oooooooooooooooooo+ooooooooOO@oooo@o@o+ooo@@@@oooooo@oooooooooooooOooo+ooo+ooooooooOoooooooooo+++",
"+++oooooooooooooooooo+ooooooooo@Ooooo @ @    @@ooooooo@oooooooooooooooOo+oooo+oooooooooOooooooooo+++",
"+++ooooooooooooooooooooooooooo@ooO     @@    @@   oooo@oooooooooooooooOo+oooo+ooooooooooOoooooooo+++",
"+++ooooooooooooooooooo+ooooooo@o      #@@####@@     o@ooooooooooooooooo+ooooo+ooooooooooOoooooooo+++",
"+++oooooooooooooooooooo+ooooo@     ####@@@###@@@#   @ ooooooooooooooooo+ooooo+oooooooooooOooooooo+++",
"+++oooooooooooooooooooo+ooooo@   ######@@@####@#@##@   ooooooooooooooo+oOoooo+oooooooooooOooooooo+++",
"+++oooooooooooooooooooo+oooo @ ########@@@####@#@#@##   ooooooooooooo+ooOoooo+ooooooooooooooooooo+++",
"+++oooooooooooooooooooo+ooo @ #########@@#@##@#@@@####   oooooooooooo+ooOoooo+oooooooooooooOooooo+++",
"+++Oooooooooooooooooooo+oo  @#########@##@@#@@@#@#@####   oooooooooo+oooOoooo+oooooooooooooOooooo+++",
"+++oOOOoooooooooooooooo+o   @########@@##@@@#@@##@#@####   oooooooo+ooooOoooo+ooooooooooooooOoooo+++",
"+++ooooOOOooooooooooooo+o  ##@#######@@##@@@###@@@##@####  ooooooo+oooooOoooo+ooooooooooooooOoooo+++",
"+++oooooooOOooooooooooo+   ##@########@##@@@#####@##@####   ooooo+ooooooOoooo+oooooooooooooooOooo+++",
"+++oooooooooOOOoooooooo   ####@#######@##@@@@###@@##@#####   oo++oooooooOoooo+ooooooooooooooooooo+++",
"+++ooooooooooooOOoooooo  #####@@#######@#@###@@@##@##@#####  oo+ooooooooOoooooooooooooooooooooOoo+++",
"+++ooooooooooooooOOoooo  ######@#######@@@###@@@##@##@#####  oo+ooooooooOoooo+ooooooooooooooooOoo+++",
"+++ooooooooooooooooOoo   #######@######@@@@@@##@##@##@#####   o+ooooooooOoooo+oooooooooooooooooOo+++",
"+++oooooooooooooooooOo  #########@####@@X@XXXX#@##@##@######  o+ooooooooooooo+oooooooooooooooooOo+++",
"+++ooooooooooooooooooO  ##########@@#@@X@@XXXXX@##@##@######  o+ooooooooOooooo+ooooooooooooooooOo+++",
"+++ooooooooooooooooooo  ############@@XX@.X...@X##@###@#####  o+oooooooooOoooo+oooooooooooooooooO+++",
"+++ooooooooooooooooooo  #############@@X@....X@XX@###@######  oooooooooooOooooooooooooooooooooooO+++",
"+++ooooooooooooooooooo  ############@X@.@@...@.@@@@@@@######  ooooooooooooooooo+ooooooooooooooooo+++",
"+++ooooooooooooooooooo  ###########@@XX@X@@@@@@@@###########  o+oooooooooOoooooo+oooooooooooooooo+++",
"+++ooooooooooooooooooo  #############XXX@@.@@@.XX###########  oo+ooooooooOooooooo+ooooooooooooooo+++",
"+++ooooooooooooooooooo  ##############XXX@@@@@XX############  oo+ooooooooOooooooo+ooooooooooooooo+++",
"+++ooooooooooooooooooo   ##############XXXXXXXX############   ooo+ooooooooOoooooooooooooooooooooo+++",
"+++oooooooooooooooooooo  ###############XXXXXX#############  oooo+ooooooooOooooooo+oooooooooooooo+++",
"+++oooooooooooooooooooo  ##################################  oooo+ooooooooooooooooo+ooooooooooooo+++",
"+++oooooooooooooooooooo   ################################   ooooo+ooooooooOooooooo+ooooooooooooo+++",
"+++ooooooooooooooooooooo   ##############################   oooooooooooooooOooooooo+ooooooooooooo+++",
"+++oooooooooooooooooooooo  ##############################  Oooooooo+ooooooooOoooooo+ooooooooooooo+++",
"+++oooooooooooooooooooooO   ############################   oooooooo+ooooooooOoooooooooooooooooooo+++",
"+++ooooooooooooooooooooo+o   ##########################   ooOooooooo+ooooooooOooooo+ooooooooooooo+++",
"++oooooooooooooooooooooo+Oo   ########################   oooOooooooo+ooooooooOoooo+oooooooooooooo+++",
"++oooooooooooooooooooooo+Ooo   ######################   +oooOoooooooo+oooooooooooo+oooooooooooooo+++",
"++oooooooooooooooooooooo+Oooo    ##################    o+oooOoooooooo+ooooooooOoo+ooooooooooooooo+++",
"++ooooooooooooooooooooo++oOooo     ##############     oo+oooOoooooooo+oooooooooOo+ooooooooooooooo+++",
"++ooooooooooooooooooooo++ooOoooo      ########      oooo+ooOoooooooooo+ooooooooO+oooooooooooooooo+++",
"++oooooooooooooooooooo+o+oooOooooo                oooooo+ooOoooooooooo+oooooooooOoooooooooooooooo+++",
"++oooooooooooooooooooo+o+oooooooooooo          oooooooo+ooOoooooooooooooooooooo+Oooooooooooooooooo++",
"++oooooooooooooooooooooooooooOooooooooooooooooooooooooo+ooOooooooooooo+ooooooo+ooOoooooooooooooooo++",
"++ooooooooooooooooooo+oo+oooooOoooooooooooooooooooooooo+oOooooooooooo+oooooooo+oooOooooooooooooooo++",
"++ooooooooooooooooooo+oo+ooooooOooooooooooooooooooooooo+oOooooooooooo+ooooooo+ooooOooooooooooooooo++",
"++oooooooooooooooooo+ooo+ooooooOoooooooooooooooooooooo+ooOooooooooo++oooooooo+oooooOoooooooooooooo++",
"++oooooooooooooooooo+ooo+oooooooOooooooooooooooooooooo+oOoooooooo++ooooooooo+ooooooOoooooooooooooo++",
"++ooooooooooooooooo+oooo+oooooooOoooooooooooooooooooo+ooOoooooo++ooooooooooo+oooooooOooooooooooooo++",
"++oooooooooooooooo+ooooo+ooooooooOooooooooooooooooooo+ooOooooo+oooooooooooo+oooooooooOoooooooooooo++",
"++oooooooooooooooooooooooooooooooooooooooooooooooooooooooooo++ooooooooooooo+oooooooooOoooooooooooo++",
"++ooooooooooooooo+ooooo+ooooooooooOooooooooooooooooo+oooOo++oooooooooooooo+oooooooooooOooooooooooo++",
"++ooooooooooooooo+oooo+ooooooooooooOooooooooooooooo+oooo++oooooooooooooooo+oooooooooooOooooooooooo++",
"++oooooooooooooo+ooooo+oooooooooooooOoooooooooooooo+oo++Ooooooooooooooooo+oooooooooooooOoooooooooo++",
"++ooooooooooooooooooo+oooooooooooooooOoooooooooooo+oo+ooOoooooooooooooooo+oooooooooooooOoooooooooo++",
"++ooooooooooooo+oooo+oooooooooooooooooOoooooooooo+oo+oooOoooooooooooooooo+ooooooooooooooOooooooooo++",
"++oooooooooooo+ooooo+ooooooooooooooooooOoooooooo+o++ooooOooooooooooooooo+ooooooooooooooooOoooooooo++",
"++ooooooooooo+oooooooooooooooooooooooooOoooooooo++ooooooOooooooooooooooo+ooooooooooooooooOoooooooo++",
"++oooooooo++++ooooo+ooooooooooooooooooooOoooooo++oooooooOoooooooooooooo+oooooooo++++++++++++++++++++",
"++oooooooo++++oooo+oooooooooooooooooooooOoooo+++++++++++++++++++++++++++++++++++++++++++++++++++++++",
"++++++++++++++++++++++++++++++++++++++++++++++++++++++++++++++++++++++++++++++++++++++++++++++++++++"
};
