/* XPM */
static char *_5eec291fbe4403fd0d7557bf11e4d71U0IA0fxBPlNZutCI[] = {
/* columns rows colors chars-per-pixel */
"100 100 8 1 ",
"  c #380079",
". c #B7141F",
"X c #FC3F1B",
"o c #4CAF50",
"O c #7ABA3A",
"+ c #009688",
"@ c #5321A8",
"# c #8800A0",
/* pixels */
"++++++++++++++++++++++++++++++++++++++++++++++++++++++++++++++++++++++++++++++++++++++++++++++++++++",
"++++++++++++++++++++++++++++++++++++++++++++++++++++++++++++++++++++++++++++++++++++++++++++++++++++",
"++++++++++++++++++++++++++++++++++++++++++++++++++++++++++++++++++++++++++++++++++++++++++++++++++++",
"++++oooooOoooooooo+ooooooooooooooOoooooooooooo++oooooooooooo+ooooOooooooooo+ooooooooooooooooooo+++++",
"++++oooooOooooooooo+ooooooooooooooOooooooooooooo+ooooooooooo+oooooOOooooooo+ooooooooooooooooooo+++++",
"++++oooooOooooooooo+ooooooooooooooooooooooooooooo++ooooooooo+oooooooOooooooo+ooooooooooooooooo+o++++",
"++++ooooooOoooooooo+ooooooooooooooooOoooooooooooooo+oooooooo+ooooooooOoooooo+oooooooooooooooo+oo++++",
"++++ooooooOoooooooo+ooooooooooooooooOooooooooooooooo+ooooooo+oooooooooOooooo+ooooooooooooooo+ooo++++",
"++++ooooooOoooooooo+oooooooooooooooooOoooooooooooooo+ooooooo+oooooooooOooooo+ooooooooooooooo+ooo++++",
"++++ooooooOoooooo++ooooooooooooooooooOooooooooooooooo+oooooo+ooooooooooOoooo+ooooooooooooo++oooo++++",
"++++oooooooOoooo+oooooooooooooooooooooOooooooooooooooooooooo+ooooooooooooooooooooooooooo++oooooo++++",
"++++oooooooOoooo+ooooooooooooooooooooooOoooooooooooooooooooooooooooooooooOoo+ooooooooooooooooooo++++",
"++++oooooooOooo+oooooooooooooooooooooooooooooooooooooo+oooo@@@@@oooooooooOo+ooooooooo+oooooooooo++++",
"++++oooooooOooo+ooooooooooooooooooooooooOoooooooooooo+o@@@@ooooo@@ooooooooO+ooooooo++ooooooooooo++++",
"++++ooooooOooo+ooooooooooooooooooooooooooOooooooooooo+@ooooo+oooo@ooooooooOoooooo++ooooooooooooo++++",
"++++ooooooOooo+ooooooooooooooooooooooooooOoooooooooo+@oooooo+oooooooooooooOooooooo++oooooooooooo++++",
"++++ooooooOoooooooooooooooooooooooooooooooOooooooooo@ooooooo+ooooooooooooo+Oooooooo+oooooooooooo++++",
"++++oooooooooo+oooooooooooooooooooooooooooOooooooooo@ooooooo+oooooooooooo+oOooooooo+oooooooooooo++++",
"++++ooooooOooo+ooooooooooooooooooooooooooooOooooooo@oooooooo+ooooooooooo+ooOoooooooo+ooooooooooo++++",
"++++oooooOooo+oooooooooooooooooooooooo@@@@oOooooooo@oooooooo+ooooooooooo+oooOooooooo+ooooooooooo++++",
"++++oooooOooo+ooooooooooooooooooooooo@oooo@@oooooo+Xooooo@@@@@@@@oooooooooooOooooooo+ooooooooooo++++",
"++++oooooOooo+ooooooooooooooooooooooooooooo@Ooooo+oXooooooo+ooooooooooooooooOooooooo+ooooooooooo++++",
"++++oooooOooo+ooooooooooooooooooooooooooooooXoooo+o@ooo@oo+oooooooooooo+ooooOooooooo+ooooooooooo++++",
"++++oooooOooo+oooooooooooooooooooooooooooooo@ooo+ooo@oo@o+ooooooooooooo+ooooOooooooo+ooooooooooo++++",
"++++ooooooOoo+oooooooooooooooooooooooooooooo@Ooo+oooo@o@+oooooooooooooo+ooooOoooooooo+oooooooooo++++",
"+++ooooooooOo+oooooooooooooooooooooooooooooo@oO+ooooo@@+ooooooooooooooo+ooooOoooooooo+oooooooooo++++",
"+++oooooooooO+ooooooooooooooooooooooooooooooXooOooooo@@+oooooooooo@@@@@@@@ooOoooooooo+oooooooooo++++",
"+++ooooooooooOoooooooooooooooooooooooooooo@@Xoo+Ooooo+XXooooooooo@oooooo+@oooooooooo+ooooooooooo++++",
"+++ooooooooooo+oooooooooooooooo@@@ooooooooooX@@ooOO++o@@oooooooo@ooooooo+oooOooooooooooooooooooo++++",
"+++oooooooooooOooooooooooooooo@ooo@@@oooooooo@+@oo+OO@oo@ooooooo@oooooooo+ooOoooooo+ooooooooooooo+++",
"+++ooooooooooooOoooooooooooooo@oooooo@oooooo@o+@o+ooo@Oo@ooooooXXoooooooo+ooooooooo+ooooooooooooo+++",
"+++oooooooooooo+oooooooooooooo@ooooooo@ooooo@+o@oooooo@@OOoooo@ooooooooooo+ooOoooo+oooooooooooooo+++",
"+++ooooooooooooooOoooooooooooo@ooooooo@ooooo@++@ooooooooooOOo@oooooooooooo+ooooooo+oooooooooooooo+++",
"+++oooooooooooooooOooooooooooo@ooooooo@oooo@++ooXoooooo@ooooO@ooooooooooooo+ooOoo+ooooooooooooooo+++",
"+++oooooooooooooo+oOoooooooooo@ooooooo@ooo+@o+ooXXo@oooo@ooooXoooooooooooooooooOo+ooooooooooooooo+++",
"+++oooooooooooooo+ooOoooooooo@oooooooo@oo+@oo+oo@o@ooooo@oooo@oOOoooooooooo+oooo+oooooooooooooooo+++",
"+++ooooooooooooooo+ooOOoooooo@oooo@@oo@oooooo+oo@@ooooooooooo@oooOoooooooooo+ooo+Oooooooooooooooo+++",
"+++ooooooooooooooo+ooooOooooo@oo@@@o@@@+ooooo+oo@oooooooo@ooo@oooooooooooooo+oo+ooOoooooooooooooo+++",
"+++ooooooooooooooo+oooooOoooo@ooooooooXX@oooo+oo@@oooooo@@oooo@ooooOoooooooo+o+@@@@@@@ooooooooooo+++",
"+++ooooooooooooooo+ooooooOo@@oooooooo@@@oooooooo@@ooooo@oooooo@ooooOooooooooo+@ooooOoo@@ooooooooo+++",
"+++oooooooooooooooo+ooooooOOooooooooo@@@oooooooXoo@ooo@oooooooo@ooooOoooooo@@@oooooOooo@ooooooooo+++",
"+++ooooooooooooooooo+oooooooOoooooooo@o@@@oooooXooo@o@oooooooooo@oooOooo@@@+o+ooooooOoooooooooooo+++",
"+++ooooooooooooooooo+ooooooooOoooooooo@o@ooooo@Xoo@@@ooooooooooo@ooooO@@oo+oo+oooooooOooooooooooo+++",
"+++oooooooooooooooooo+ooooooooOOoooooo@XX+o@o@+o@@oo@ooooooooooo@oo@@@ooo+ooo+ooooooooOoooooooooo+++",
"+++oooooooooooooooooo+ooooooooooOooooooo@+o@@o+o@@oo@ooooooooooo@@@oooOo+oooo+oooooooooOooooooooo+++",
"+++ooooooooooooooooooooooooooooooOoooooo@@@oo@o+oo@o@ooooooooX@@@oooooOo+oooo+ooooooooooOoooooooo+++",
"+++ooooooooooooooooooo+oooooooooooOooooo@o@oo@o+oo@oo@ooooo@@Xoo@oooooo+ooooo+ooooooooooOoooooooo+++",
"+++oooooooooooooooooooo+oooooooooooOoooo@o+@oo@o+oo@o@oo@@@oooo@ooooooo+ooooo+oooooooooooOooooooo+++",
"+++oooooooooooooooooooo+ooooooooooooOoo@oo+o@o@o+ooo@@@@oooooo@ooooooo+oOoooo+oooooooooooOooooooo+++",
"+++oooooooooooooooooooo+oooooooooooooO@ooo+o @ @    @@ooooooo@ooooooo+ooOoooo+ooooooooooooooooooo+++",
"+++oooooooooooooooooooo+ooooooooooooo@Ooo     @@    @@   oooo@ooooooo+ooOoooo+oooooooooooooOooooo+++",
"+++Oooooooooooooooooooo+ooooooooooooo@o      #@@####@@     o@ooooooo+oooOoooo+oooooooooooooOooooo+++",
"+++oOOOoooooooooooooooo+oooooooooooo@     ####@@@###@@@#   @ oooooo+ooooOoooo+ooooooooooooooOoooo+++",
"+++ooooOOOooooooooooooo+oooooooooooo@   ######@@@####@#@##@   oooo+oooooOoooo+ooooooooooooooOoooo+++",
"+++oooooooOOooooooooooo+ooooooooooo @ ########@@@####@#@#@##   oo+ooooooOoooo+oooooooooooooooOooo+++",
"+++oooooooooOOOoooooooo+oooooooooo @ #########@@#@##@#@@@####   +oooooooOoooo+ooooooooooooooooooo+++",
"+++ooooooooooooOOooooooo+oooooooo  @#########@##@@#@@@#@#@####   oooooooOoooooooooooooooooooooOoo+++",
"+++ooooooooooooooOOooooooooooooo   @########@@##@@@#@@##@#@####   ooooooOoooo+ooooooooooooooooOoo+++",
"+++ooooooooooooooooOoooooooooooo  ##@#######@@##@@@###@@@##@####  ooooooOoooo+oooooooooooooooooOo+++",
"+++oooooooooooooooooOooo+oooooo   ##@########@##@@@#####@##@####   oooooooooo+oooooooooooooooooOo+++",
"+++ooooooooooooooooooOoo+ooooo   ####@#######@##@@@@###@@##@#####   ooooOooooo+ooooooooooooooooOo+++",
"+++ooooooooooooooooooooo+ooooo  #####@@#######@#@###@@@##@##@#####  oooooOoooo+oooooooooooooooooO+++",
"+++ooooooooooooooooooooo+ooooo  ######@#######@@@###@@@##@##@#####  oooooOooooooooooooooooooooooO+++",
"+++oooooooooooooooooooOo+oooo   #######@######@@@@@@##@##@##@#####   oooooooooo+ooooooooooooooooo+++",
"+++ooooooooooooooooooooO+oooo  #########@####@@X@XXXX#@##@##@######  ooooOoooooo+oooooooooooooooo+++",
"+++ooooooooooooooooooooO+oooo  ##########@@#@@X@@XXXXX@##@##@######  ooooOooooooo+ooooooooooooooo+++",
"+++ooooooooooooooooooooO+ooo+  ############@@XX@.X...@X##@###@#####  ooooOooooooo+ooooooooooooooo+++",
"+++ooooooooooooooooooooO+oo+o  #############@@X@....X@XX@###@######  oooooOoooooooooooooooooooooo+++",
"+++ooooooooooooooooooooO+o+oo  ############@X@.@@...@.@@@@@@@######  oooooOooooooo+oooooooooooooo+++",
"+++ooooooooooooooooooooO+o+oo  ###########@@XX@X@@@@@@@@###########  oooooooooooooo+ooooooooooooo+++",
"+++ooooooooooooooooooooO++ooo  #############XXX@@.@@@.XX###########  ooooooOooooooo+ooooooooooooo+++",
"+++oooooooooooooooooooooOoooo  ##############XXX@@@@@XX############  ooooooOooooooo+ooooooooooooo+++",
"+++oooooooooooooooooooooo+ooo   ##############XXXXXXXX############   oooooooOoooooo+ooooooooooooo+++",
"+++oooooooooooooooooooooO+oooo  ###############XXXXXX#############  ooooooooOoooooooooooooooooooo+++",
"+++ooooooooooooooooooooo+ooooo  ##################################  +ooooooooOooooo+ooooooooooooo+++",
"++oooooooooooooooooooooo+Ooooo   ################################   +ooooooooOoooo+oooooooooooooo+++",
"++oooooooooooooooooooooo+Oooooo   ##############################   oo+oooooooooooo+oooooooooooooo+++",
"++oooooooooooooooooooooo+Ooooooo  ##############################  ooo+ooooooooOoo+ooooooooooooooo+++",
"++ooooooooooooooooooooo++oOooooo   ############################   ooo+oooooooooOo+ooooooooooooooo+++",
"++ooooooooooooooooooooo++ooOooooo   ##########################   ooooo+ooooooooO+oooooooooooooooo+++",
"++oooooooooooooooooooo+o+oooOooooo   ########################   oooooo+oooooooooOoooooooooooooooo+++",
"++oooooooooooooooooooo+o+oooooooooo   ######################   oooooooooooooooo+Oooooooooooooooooo++",
"++oooooooooooooooooooooooooooOoooooo    ##################    oooooooo+ooooooo+ooOoooooooooooooooo++",
"++ooooooooooooooooooo+oo+oooooOoooooo     ##############     oooooooo+oooooooo+oooOooooooooooooooo++",
"++ooooooooooooooooooo+oo+ooooooOooooooo      ########      oooooooooo+ooooooo+ooooOooooooooooooooo++",
"++oooooooooooooooooo+ooo+ooooooOooooooooo                Oooooooooo++oooooooo+oooooOoooooooooooooo++",
"++oooooooooooooooooo+ooo+oooooooOooooooooooo          +oOoooooooo++ooooooooo+ooooooOoooooooooooooo++",
"++ooooooooooooooooo+oooo+oooooooOoooooooooooooooooooo+ooOoooooo++ooooooooooo+oooooooOooooooooooooo++",
"++oooooooooooooooo+ooooo+ooooooooOooooooooooooooooooo+ooOooooo+oooooooooooo+oooooooooOoooooooooooo++",
"++oooooooooooooooooooooooooooooooooooooooooooooooooooooooooo++ooooooooooooo+oooooooooOoooooooooooo++",
"++ooooooooooooooo+ooooo+ooooooooooOooooooooooooooooo+oooOo++oooooooooooooo+oooooooooooOooooooooooo++",
"++ooooooooooooooo+oooo+ooooooooooooOooooooooooooooo+oooo++oooooooooooooooo+oooooooooooOooooooooooo++",
"++oooooooooooooo+ooooo+oooooooooooooOoooooooooooooo+oo++Ooooooooooooooooo+oooooooooooooOoooooooooo++",
"++ooooooooooooooooooo+oooooooooooooooOoooooooooooo+oo+ooOoooooooooooooooo+oooooooooooooOoooooooooo++",
"++ooooooooooooo+oooo+oooooooooooooooooOoooooooooo+oo+oooOoooooooooooooooo+ooooooooooooooOooooooooo++",
"++oooooooooooo+ooooo+ooooooooooooooooooOoooooooo+o++ooooOooooooooooooooo+ooooooooooooooooOoooooooo++",
"++ooooooooooo+oooooooooooooooooooooooooOoooooooo++ooooooOooooooooooooooo+ooooooooooooooooOoooooooo++",
"++oooooooo++++ooooo+ooooooooooooooooooooOoooooo++oooooooOoooooooooooooo+oooooooo++++++++++++++++++++",
"++oooooooo++++oooo+oooooooooooooooooooooOoooo+++++++++++++++++++++++++++++++++++++++++++++++++++++++",
"++++++++++++++++++++++++++++++++++++++++++++++++++++++++++++++++++++++++++++++++++++++++++++++++++++"
};
