/* XPM */
static char *_4c8daaa4b8743b68947453fdb146affFzqNuAOueRsh8ZI9[] = {
/* columns rows colors chars-per-pixel */
"100 100 3 1 ",
"  c #4CAF50",
". c #8BC34A",
"X c #009688",
/* pixels */
"XXXXXXXXXXXXXXXXXXXXXXXXXXXXXXXXXXXXXXXXXXXXXXXXXXXXXXXXXXXXXXXXXXXXXXXXXXXXXXXXXXXXXXXXXXXXXXXXXXXX",
"XXXXXXXXXXXXXXXXXXXXXXXXXXXXXXXXXXXXXXXXXXXXXXXXXXXXXXXXXXXXXXXXXXXXXXXXXXXXXXXXXXXXXXXXXXXXXXXXXXXX",
"XXXXXXXXXXXXXXXXXXXXXXXXXXXXXXXXXXXXXXXXXXXXXXXXXXXXXXXXXXXXXXXXXXXXXXXXXXXXXXXXXXXXXXXXXXXXXXXXXXXX",
"XXXX     .        X              .            XX            X    .         X                   XXXXX",
"XXXX     .         X              .             X           X     ..       X                   XXXXX",
"XXXX     .         X                             XX         X       .       X                 X XXXX",
"XXXX      .        X                .              X        X        .      X                X  XXXX",
"XXXX      .        X                .               X       X         .     X               X   XXXX",
"XXXX      .        X                 .              X       X         .     X               X   XXXX",
"XXXX      .      XX                  .               X      X          .    X             XX    XXXX",
"XXXX       .    X                     .                     X                           XX      XXXX",
"XXXX       .    X                      .                                 .  X                   XXXX",
"XXXX       .   X                                      X     X            . X         X          XXXX",
"XXXX       .   X                        .            X                    .X       XX           XXXX",
"XXXX      .   X                          .           X      X             .      XX             XXXX",
"XXXX      .   X                          .          X       X             .       XX            XXXX",
"XXXX      .                               .         X       X             X.       X            XXXX",
"XXXX          X                           .         X       X            X .       X            XXXX",
"XXXX      .   X                            .       X        X           X  .        X           XXXX",
"XXXX     .   X                             .       X        X           X   .       X           XXXX",
"XXXX     .   X                                    X        X                .       X           XXXX",
"XXXX     .   X                              .    X         X                .       X           XXXX",
"XXXX     .   X                              .    X        X            X    .       X           XXXX",
"XXXX     .   X                              .   X        X             X    .       X           XXXX",
"XXXX      .  X                               .  X       X              X    .        X          XXXX",
"XXX        . X                                .X       X               X    .        X          XXXX",
"XXX         .X                                 .       X               X    .        X          XXXX",
"XXX          .                                 X.    XX                 X           X           XXXX",
"XXX           X                                  ..XX                   X   .                   XXXX",
"XXX           .                               X   X...                   X  .      X             XXX",
"XXX            .                              X  X    .                  X         X             XXX",
"XXX            X                             X X       ...                X  .    X              XXX",
"XXX              .                           XX           ..              X       X              XXX",
"XXX               .                        XXX              ..             X  .  X               XXX",
"XXX              X .                      X  X                                 . X               XXX",
"XXX              X  .                    X   X                 ..          X    X                XXX",
"XXX               X  ..                      X                   .          X   X.               XXX",
"XXX               X    .               X     X                              X  X  .              XXX",
"XXX               X     .             X      X                     .        X X   .              XXX",
"XXX               X      .            X                            .         X     .             XXX",
"XXX                X      ..           X                            .       XX     .             XXX",
"XXX                 X       .                                       .      X X      .            XXX",
"XXX                 X        .                X                      .    X  X       .           XXX",
"XXX                  X        ..         X    X                      .   X   X        .          XXX",
"XXX                  X          .        X    X                       . X    X         .         XXX",
"XXX                              .        X    X                      . X    X          .        XXX",
"XXX                   X           .       X    X                       X     X          .        XXX",
"XXX                    X           .      X     X                      X     X           .       XXX",
"XXX                    X            .     X     X                     X .    X           .       XXX",
"XXX                    X             .    X     X                    X  .    X                   XXX",
"XXX                    X              .         X                    X  .    X             .     XXX",
"XXX.                   X               .  X      X                  X   .    X             .     XXX",
"XXX ...                X                .X       X                 X    .    X              .    XXX",
"XXX    ...             X                 X.       X               X     .    X              .    XXX",
"XXX       ..           X                X  .      X              X      .    X               .   XXX",
"XXX         ...        X               X    .                  XX       .    X                   XXX",
"XXX            ..       X              X     .                 X        .                     .  XXX",
"XXX              ..                   X       .     X          X        .    X                .  XXX",
"XXX                .                 X         .    X          X        .    X                 . XXX",
"XXX                 .   X           X           .   X          X             X                 . XXX",
"XXX                  .  X          X             .  X          X        .     X                . XXX",
"XXX                     X        XX               . X          X         .    X                 .XXX",
"XXX                     X       X                  .X                    .                      .XXX",
"XXX                   . X      X                    .                          X                 XXX",
"XXX                    .X      X                     .         X         .      X                XXX",
"XXX                    .X    XX                      X          X        .       X               XXX",
"XXX                    .X   X                          .        X        .       X               XXX",
"XXX                    .X  X                          X .        X        .                      XXX",
"XXX                    .X X                           X  .       X        .       X              XXX",
"XXX                    .X X                           X  .       X                 X             XXX",
"XXX                    .XX                             X  .       X        .       X             XXX",
"XXX                     .                              X   .               .       X             XXX",
"XXX                      X                              X  .       X        .      X             XXX",
"XXX                     .X                              X          X        .                    XXX",
"XXX                     X                                   .       X        .     X             XXX",
"XX                      X.                              X   .       X        .    X              XXX",
"XX                      X.                              X   .        X            X              XXX",
"XX                      X.                              X   .        X        .  X               XXX",
"XX                     XX .                             X   .        X         . X               XXX",
"XX                     XX  .                            X  .          X        .X                XXX",
"XX                    X X   .                           X  .          X         .                XXX",
"XX                    X X                              X  .                    X.                 XX",
"XX                           .                         X  .           X       X  .                XX",
"XX                   X  X     .                        X .           X        X   .               XX",
"XX                   X  X      .                       X .           X       X    .               XX",
"XX                  X   X      .                      X  .         XX        X     .              XX",
"XX                  X   X       .                     X .        XX         X      .              XX",
"XX                 X    X       .                    X  .      XX           X       .             XX",
"XX                X     X        .                   X  .     X            X         .            XX",
"XX                                                          XX             X         .            XX",
"XX               X     X          .                 X   . XX              X           .           XX",
"XX               X    X            .               X    XX                X           .           XX",
"XX              X     X             .              X  XX.                X             .          XX",
"XX                   X               .            X  X  .                X             .          XX",
"XX             X    X                 .          X  X   .                X              .         XX",
"XX            X     X                  .        X XX    .               X                .        XX",
"XX           X                         .        XX      .               X                .        XX",
"XX        XXXX     X                    .      XX       .              X        XXXXXXXXXXXXXXXXXXXX",
"XX        XXXX    X                     .    XXXXXXXXXXXXXXXXXXXXXXXXXXXXXXXXXXXXXXXXXXXXXXXXXXXXXXX",
"XXXXXXXXXXXXXXXXXXXXXXXXXXXXXXXXXXXXXXXXXXXXXXXXXXXXXXXXXXXXXXXXXXXXXXXXXXXXXXXXXXXXXXXXXXXXXXXXXXXX"
};
