/* XPM */
static char *bf8eec9db4c944c7a12377e0570b4e05cxp8GI6P0rpRmI05[] = {
/* columns rows colors chars-per-pixel */
"100 100 8 1 ",
"  c None",
". c #2A1819",
"X c #8D3035",
"o c #AC383E",
"O c #3E8C1E",
"+ c #CEA97D",
"@ c #FECE98",
"# c white",
/* pixels */
"                                                                                                    ",
"                                                                                                    ",
"                                                                                                    ",
"                                                                                                    ",
"                                                                                                    ",
"                                                                                                    ",
"                     ..................................................................             ",
"                     ..................................................................             ",
"                     ..................................................................             ",
"                     ..................................................................             ",
"                     ..................................................................             ",
"                ...........XXXXXXXXXXXXXXXXXXXXXXoooooooooooooooooooooooooooooooooooooo......       ",
"                ...........XXXXXXXXXXXXXXXXXXXXXXoooooooooooooooooooooooooooooooooooooo......       ",
"                ...........XXXXXXXXXXXXXXXXXXXXXXoooooooooooooooooooooooooooooooooooooo......       ",
"                ...........XXXXXXXXXXXXXXXXXXXXXXoooooooooooooooooooooooooooooooooooooo......       ",
"                ...........XXXXXXXXXXXXXXXXXXXXXXoooooooooooooooooooooooooooooooooooooo......       ",
"                ...........XXXXXXXXXXXXXXXXXXXXXXoooooooooooooooooooooooooooooooooooooo......       ",
"          ......OOOOO......XXXXXXXXXXXXXXXXXXXXXXXXXXXoooooooooooXXXXXXXXXXXXXXXXXooooo......       ",
"          ......OOOOO......XXXXXXXXXXXXXXXXXXXXXXXXXXXoooooooooooXXXXXXXXXXXXXXXXXooooo......       ",
"          ......OOOOO......XXXXXXXXXXXXXXXXXXXXXXXXXXXoooooooooooXXXXXXXXXXXXXXXXXooooo......       ",
"          ......OOOOO......XXXXXXXXXXXXXXXXXXXXXXXXXXXoooooooooooXXXXXXXXXXXXXXXXXooooo......       ",
"          ......OOOOO......XXXXXXXXXXXXXXXXXXXXXXXXXXXoooooooooooXXXXXXXXXXXXXXXXXooooo......       ",
"          ......OOOOO......XXXXX#################XXXXXoooooo.....ooooooooooooooooo...........       ",
"          ......OOOOO......XXXXX######.....######XXXXXoooooo.....ooooooooooooooooo...........       ",
"          ......OOOOO......XXXXX######.....######XXXXXoooooo.....ooooooooooooooooo...........       ",
"          ......OOOOO......XXXXX######.....######XXXXXoooooo.....ooooooooooooooooo...........       ",
"          ......OOOOO......XXXXX######.....######XXXXXoooooo.....ooooooooooooooooo...........       ",
"          ......OOOOO......XXXXX######.....######XXXXXoooooo.....ooooooooooooooooo...........       ",
"          .................XXXXX######.....######XXXXXooooooooooooooooooooooooooooooooo......       ",
"          .................XXXXX######.....######XXXXXooooooooooooooooooooooooooooooooo......       ",
"          .................XXXXX######.....######XXXXXooooooooooooooooooooooooooooooooo......       ",
"          .................XXXXX######.....######XXXXXooooooooooooooooooooooooooooooooo......       ",
"          .................XXXXX######.....######XXXXXooooooooooooooooooooooooooooooooo......       ",
"                .....OOOOOO.....######.....######XXXXXooooooooooooooooooooooooooooooooo......       ",
"                .....OOOOOO.....######.....######XXXXXooooooooooooooooooooooooooooooooo......       ",
"                .....OOOOOO.....######.....######XXXXXooooooooooooooooooooooooooooooooo......       ",
"                .....OOOOOO.....######.....######XXXXXooooooooooooooooooooooooooooooooo......       ",
"                .....OOOOOO.....######.....######XXXXXooooooooooooooooooooooooooooooooo......       ",
"                .....OOOOOO.....#################XXXXXooooooooooooooooooooooooooooooooo......       ",
"                .....OOOOOO.....XXXXXXXXXXXXXXXXXXXXXXooooooooooooooooooooooooooooooooo......       ",
"                .....OOOOOO.....XXXXXXXXXXXXXXXXXXXXXXooooooooooooooooooooooooooooooooo......       ",
"                .....OOOOOO.....XXXXXXXXXXXXXXXXXXXXXXooooooooooooooooooooooooooooooooo......       ",
"                .....OOOOOO.....XXXXXXXXXXXXXXXXXXXXXXooooooooooooooooooooooooooooooooo......       ",
"                .....OOOOOO.....XXXXXXXXXXXXXXXXXXXXXXooooooooooooooooooooooooooooooooo......       ",
"                ................XXXXXXXXXXXXXXXXXXXXXXXXXXXXooooo............................       ",
"                ................XXXXXXXXXXXXXXXXXXXXXXXXXXXXooooo............................       ",
"                ................XXXXXXXXXXXXXXXXXXXXXXXXXXXXooooo............................       ",
"                ................XXXXXXXXXXXXXXXXXXXXXXXXXXXXooooo............................       ",
"                ................XXXXXXXXXXXXXXXXXXXXXXXXXXXXooooo............................       ",
"                ................XXXXXXXXXXXXXXXXXXXXXXXXXXXXooooo............................       ",
"                ...........XXXXXXXXXXXoooooooooooooooooooooo.....                                   ",
"                ...........XXXXXXXXXXXoooooooooooooooooooooo.....                                   ",
"                ...........XXXXXXXXXXXoooooooooooooooooooooo.....                                   ",
"                ...........XXXXXXXXXXXoooooooooooooooooooooo.....                                   ",
"                ...........XXXXXXXXXXXoooooooooooooooooooooo.....                                   ",
"                     ......XXXXX++++++@@@@@@@@@@@@@@@@@@@@@@.....                                   ",
"                     ......XXXXX++++++@@@@@@@@@@@@@@@@@@@@@@.....                                   ",
"                     ......XXXXX++++++@@@@@@@@@@@@@@@@@@@@@@.....                                   ",
"                     ......XXXXX++++++@@@@@@@@@@@@@@@@@@@@@@.....                                   ",
"                     ......XXXXX++++++@@@@@@@@@@@@@@@@@@@@@@.....                                   ",
"                     ......XXXXX++++++@@@@@@@@@@@@@@@@@@@@@@.....                                   ",
"          .................XXXXX++++++@@@@@@@@@@@@@@@@@@@@@@.....                                   ",
"          .................XXXXX++++++@@@@@@@@@@@@@@@@@@@@@@.....                                   ",
"          .................XXXXX++++++@@@@@@@@@@@@@@@@@@@@@@.....                                   ",
"          .................XXXXX++++++@@@@@@@@@@@@@@@@@@@@@@.....                                   ",
"          .................XXXXX++++++@@@@@@@@@@@@@@@@@@@@@@.....                                   ",
"          ......oooooooooooXXXXX++++++@@@@@@@@@@@@@@@@@@@@@@.....                                   ",
"          ......oooooooooooXXXXX++++++@@@@@@@@@@@@@@@@@@@@@@.....                                   ",
"          ......oooooooooooXXXXX++++++@@@@@@@@@@@@@@@@@@@@@@.....                                   ",
"          ......oooooooooooXXXXX++++++@@@@@@@@@@@@@@@@@@@@@@.....                                   ",
"          ......oooooooooooXXXXX++++++@@@@@@@@@@@@@@@@@@@@@@.....                                   ",
"          ......oooooooooooXXXXX++++++@@@@@@@@@@@@@@@@@@@@@@.....                                   ",
"          ...........XXXXXXXXXXXXXXXXXooooo+++++++++++oooooo.....                                   ",
"          ...........XXXXXXXXXXXXXXXXXooooo+++++++++++oooooo.....                                   ",
"          ...........XXXXXXXXXXXXXXXXXooooo+++++++++++oooooo.....                                   ",
"          ...........XXXXXXXXXXXXXXXXXooooo+++++++++++oooooo.....                                   ",
"          ...........XXXXXXXXXXXXXXXXXooooo+++++++++++oooooo.....                                   ",
"                ...........XXXXXoooooooooooooooooooooooooooo.....                                   ",
"                ...........XXXXXoooooooooooooooooooooooooooo.....                                   ",
"                ...........XXXXXoooooooooooooooooooooooooooo.....                                   ",
"                ...........XXXXXoooooooooooooooooooooooooooo.....                                   ",
"                ...........XXXXXoooooooooooooooooooooooooooo.....                                   ",
"                ...........XXXXXoooooooooooooooooooooooooooo.....                                   ",
"                     ......XXXXXoooooo...........XXXXXoooooo.....                                   ",
"                     ......XXXXXoooooo...........XXXXXoooooo.....                                   ",
"                     ......XXXXXoooooo...........XXXXXoooooo.....                                   ",
"                     ......XXXXXoooooo...........XXXXXoooooo.....                                   ",
"                     ......XXXXXoooooo...........XXXXXoooooo.....                                   ",
"                     ......XXXXX......     ......XXXXX......                                        ",
"                     ......XXXXX......     ......XXXXX......                                        ",
"                     ......XXXXX......     ......XXXXX......                                        ",
"                     ......XXXXX......     ......XXXXX......                                        ",
"                     ......XXXXX......     ......XXXXX......                                        ",
"                     ......XXXXX......     ......XXXXX......                                        ",
"                     ...........           ...........                                              ",
"                     ...........           ...........                                              ",
"                     ...........           ...........                                              ",
"                     ...........           ...........                                              ",
"                     ...........           ...........                                              ",
"                     ...........           ...........                                              "
};
