/* XPM */
static char *_94d1ade5bc34da2c006ee8b305abbd11jAjDuQkDncc6b8M[] = {
/* columns rows colors chars-per-pixel */
"100 100 2 1 ",
"  c #000000",
". c #006400",
/* pixels */
"....................................................................................................",
"....................................................................................................",
"..                                                                                                ..",
"..                                                                                                ..",
"..  ............................................................................................  ..",
"..  ............................................................................................  ..",
"..  ..                                                                                       ...  ..",
"..  ..                                                                                       ...  ..",
"..  ..  ...................................................................................  ...  ..",
"..  ..  ...................................................................................  ...  ..",
"..  ..  ..                                                                               ..  ...  ..",
"..  ..  ..                                                                               ..  ...  ..",
"..  ..  ..  ...........................................................................  ..  ...  ..",
"..  ..  ..  ...........................................................................  ..  ...  ..",
"..  ..  ..  ..                                                                       ..  ..  ...  ..",
"..  ..  ..  ..                                                                       ..  ..  ...  ..",
"..  ..  ..  ..  ...................................................................  ..  ..  ...  ..",
"..  ..  ..  ..  ...................................................................  ..  ..  ...  ..",
"..  ..  ..  ..  ..                                                              ...  ..  ..  ...  ..",
"..  ..  ..  ..  ..                                                              ...  ..  ..  ...  ..",
"..  ..  ..  ..  ..  ..........................................................  ...  ..  ..  ...  ..",
"..  ..  ..  ..  ..  ..........................................................  ...  ..  ..  ...  ..",
"..  ..  ..  ..  ..  ..                                                      ..  ...  ..  ..  ...  ..",
"..  ..  ..  ..  ..  ..                                                      ..  ...  ..  ..  ...  ..",
"..  ..  ..  ..  ..  ..  ..................................................  ..  ...  ..  ..  ...  ..",
"..  ..  ..  ..  ..  ..  ..................................................  ..  ...  ..  ..  ...  ..",
"..  ..  ..  ..  ..  ..  ..                                              ..  ..  ...  ..  ..  ...  ..",
"..  ..  ..  ..  ..  ..  ..                                              ..  ..  ...  ..  ..  ...  ..",
"..  ..  ..  ..  ..  ..  ..  ..........................................  ..  ..  ...  ..  ..  ...  ..",
"..  ..  ..  ..  ..  ..  ..  ..........................................  ..  ..  ...  ..  ..  ...  ..",
"..  ..  ..  ..  ..  ..  ..  ..........................................  ..  ..  ...  ..  ..  ...  ..",
"..  ..  ..  ..  ..  ..  ..  ..                                      ..  ..  ..  ...  ..  ..  ...  ..",
"..  ..  ..  ..  ..  ..  ..  ..                                      ..  ..  ..  ...  ..  ..  ...  ..",
"..  ..  ..  ..  ..  ..  ..  ..  ..................................  ..  ..  ..  ...  ..  ..  ...  ..",
"..  ..  ..  ..  ..  ..  ..  ..  ..................................  ..  ..  ..  ...  ..  ..  ...  ..",
"..  ..  ..  ..  ..  ..  ..  ..  ..................................  ..  ..  ..  ...  ..  ..  ...  ..",
"..  ..  ..  ..  ..  ..  ..  ..  ..                              ..  ..  ..  ..  ...  ..  ..  ...  ..",
"..  ..  ..  ..  ..  ..  ..  ..  ..                              ..  ..  ..  ..  ...  ..  ..  ...  ..",
"..  ..  ..  ..  ..  ..  ..  ..  ..  ..........................  ..  ..  ..  ..  ...  ..  ..  ...  ..",
"..  ..  ..  ..  ..  ..  ..  ..  ..  ..........................  ..  ..  ..  ..  ...  ..  ..  ...  ..",
"..  ..  ..  ..  ..  ..  ..  ..  ..  ..                      ..  ..  ..  ..  ..  ...  ..  ..  ...  ..",
"..  ..  ..  ..  ..  ..  ..  ..  ..  ..                      ..  ..  ..  ..  ..  ...  ..  ..  ...  ..",
"..  ..  ..  ..  ..  ..  ..  ..  ..  ..  ..................  ..  ..  ..  ..  ..  ...  ..  ..  ...  ..",
"..  ..  ..  ..  ..  ..  ..  ..  ..  ..  ..................  ..  ..  ..  ..  ..  ...  ..  ..  ...  ..",
"..  ..  ..  ..  ..  ..  ..  ..  ..  ..  ..              ..  ..  ..  ..  ..  ..  ...  ..  ..  ...  ..",
"..  ..  ..  ..  ..  ..  ..  ..  ..  ..  ..              ..  ..  ..  ..  ..  ..  ...  ..  ..  ...  ..",
"..  ..  ..  ..  ..  ..  ..  ..  ..  ..  ..  ..........  ..  ..  ..  ..  ..  ..  ...  ..  ..  ...  ..",
"..  ..  ..  ..  ..  ..  ..  ..  ..  ..  ..  ..........  ..  ..  ..  ..  ..  ..  ...  ..  ..  ...  ..",
"..  ..  ..  ..  ..  ..  ..  ..  ..  ..  ..  ..      ..  ..  ..  ..  ..  ..  ..  ...  ..  ..  ...  ..",
"..  ..  ..  ..  ..  ..  ..  ..  ..  ..  ..  ..      ..  ..  ..  ..  ..  ..  ..  ...  ..  ..  ...  ..",
"..  ..  ..  ..  ..  ..  ..  ..  ..  ..  ..  ..  ..  ..  ..  ..  ..  ..  ..  ..  ...  ..  ..  ...  ..",
"..  ..  ..  ..  ..  ..  ..  ..  ..  ..  ..  ..  ..  ..  ..  ..  ..  ..  ..  ..  ...  ..  ..  ...  ..",
"..  ..  ..  ..  ..  ..  ..  ..  ..  ..  ..  ..      ..  ..  ..  ..  ..  ..  ..  ...  ..  ..  ...  ..",
"..  ..  ..  ..  ..  ..  ..  ..  ..  ..  ..  ..      ..  ..  ..  ..  ..  ..  ..  ...  ..  ..  ...  ..",
"..  ..  ..  ..  ..  ..  ..  ..  ..  ..  ..  ..........  ..  ..  ..  ..  ..  ..  ...  ..  ..  ...  ..",
"..  ..  ..  ..  ..  ..  ..  ..  ..  ..  ..  ..........  ..  ..  ..  ..  ..  ..  ...  ..  ..  ...  ..",
"..  ..  ..  ..  ..  ..  ..  ..  ..  ..  ..              ..  ..  ..  ..  ..  ..  ...  ..  ..  ...  ..",
"..  ..  ..  ..  ..  ..  ..  ..  ..  ..  ..              ..  ..  ..  ..  ..  ..  ...  ..  ..  ...  ..",
"..  ..  ..  ..  ..  ..  ..  ..  ..  ..  ..................  ..  ..  ..  ..  ..  ...  ..  ..  ...  ..",
"..  ..  ..  ..  ..  ..  ..  ..  ..  ..  ..................  ..  ..  ..  ..  ..  ...  ..  ..  ...  ..",
"..  ..  ..  ..  ..  ..  ..  ..  ..  ..                      ..  ..  ..  ..  ..  ...  ..  ..  ...  ..",
"..  ..  ..  ..  ..  ..  ..  ..  ..  ..                      ..  ..  ..  ..  ..  ...  ..  ..  ...  ..",
"..  ..  ..  ..  ..  ..  ..  ..  ..  ..........................  ..  ..  ..  ..  ...  ..  ..  ...  ..",
"..  ..  ..  ..  ..  ..  ..  ..  ..  ..........................  ..  ..  ..  ..  ...  ..  ..  ...  ..",
"..  ..  ..  ..  ..  ..  ..  ..  ..                              ..  ..  ..  ..  ...  ..  ..  ...  ..",
"..  ..  ..  ..  ..  ..  ..  ..  ..                              ..  ..  ..  ..  ...  ..  ..  ...  ..",
"..  ..  ..  ..  ..  ..  ..  ..  ..................................  ..  ..  ..  ...  ..  ..  ...  ..",
"..  ..  ..  ..  ..  ..  ..  ..  ..................................  ..  ..  ..  ...  ..  ..  ...  ..",
"..  ..  ..  ..  ..  ..  ..  ..                                      ..  ..  ..  ...  ..  ..  ...  ..",
"..  ..  ..  ..  ..  ..  ..  ..                                      ..  ..  ..  ...  ..  ..  ...  ..",
"..  ..  ..  ..  ..  ..  ..  ..........................................  ..  ..  ...  ..  ..  ...  ..",
"..  ..  ..  ..  ..  ..  ..  ..........................................  ..  ..  ...  ..  ..  ...  ..",
"..  ..  ..  ..  ..  ..  ..                                              ..  ..  ...  ..  ..  ...  ..",
"..  ..  ..  ..  ..  ..  ..                                              ..  ..  ...  ..  ..  ...  ..",
"..  ..  ..  ..  ..  ..  ..................................................  ..  ...  ..  ..  ...  ..",
"..  ..  ..  ..  ..  ..  ..................................................  ..  ...  ..  ..  ...  ..",
"..  ..  ..  ..  ..  ..                                                      ..  ...  ..  ..  ...  ..",
"..  ..  ..  ..  ..  ..                                                      ..  ...  ..  ..  ...  ..",
"..  ..  ..  ..  ..  ..........................................................  ...  ..  ..  ...  ..",
"..  ..  ..  ..  ..  ..........................................................  ...  ..  ..  ...  ..",
"..  ..  ..  ..  ..                                                              ...  ..  ..  ...  ..",
"..  ..  ..  ..  ..                                                              ...  ..  ..  ...  ..",
"..  ..  ..  ..  ...................................................................  ..  ..  ...  ..",
"..  ..  ..  ..  ...................................................................  ..  ..  ...  ..",
"..  ..  ..  ..                                                                       ..  ..  ...  ..",
"..  ..  ..  ..                                                                       ..  ..  ...  ..",
"..  ..  ..  ...........................................................................  ..  ...  ..",
"..  ..  ..  ...........................................................................  ..  ...  ..",
"..  ..  ..                                                                               ..  ...  ..",
"..  ..  ..                                                                               ..  ...  ..",
"..  ..  ...................................................................................  ...  ..",
"..  ..  ...................................................................................  ...  ..",
"..  ..                                                                                       ...  ..",
"..  ..                                                                                       ...  ..",
"..  ............................................................................................  ..",
"..  ............................................................................................  ..",
"..                                                                                                ..",
"..                                                                                                ..",
"....................................................................................................",
"...................................................................................................."
};
