/* XPM */
static char *aaddbf358f474ebdaffc632c33cad69cWD38SFJ5R2ILPrZL[] = {
/* columns rows colors chars-per-pixel */
"25 25 2 1 ",
"  c black",
". c #B2FF59",
/* pixels */
".........................",
".........................",
"...                  ....",
"...                  ....",
"...                  ....",
"...                  ....",
".................    ....",
".................    ....",
".................    ....",
".................    ....",
"...                  ....",
"...                  ....",
"...                  ....",
"...                  ....",
".................    ....",
".................    ....",
".................    ....",
".................    ....",
".................    ....",
"...                  ....",
"...                  ....",
"...                  ....",
"...                  ....",
".........................",
"........................."
};
