/* XPM */
static char *_be58df5c7ed443bfe2691edecbbd179aOFvIQ78qUtiHUaY[] = {
/* columns rows colors chars-per-pixel */
"25 25 2 1 ",
"  c black",
". c #B2FF59",
/* pixels */
".........................",
".........................",
"...    ..........    ....",
"...    ..........    ....",
"...    ..........    ....",
"...    ..........    ....",
"...    ..........    ....",
"...    ..........    ....",
"...    ..........    ....",
"...    ..........    ....",
"...                  ....",
"...                  ....",
"...                  ....",
"...                  ....",
".................    ....",
".................    ....",
".................    ....",
".................    ....",
".................    ....",
".................    ....",
".................    ....",
".................    ....",
".................    ....",
".........................",
"........................."
};
