/* XPM */
static char *b75a2a8323064474c80c5d3668728d0dBe0yjGQ086opWTUG[] = {
/* columns rows colors chars-per-pixel */
"25 25 2 1 ",
"  c black",
". c #B2FF59",
/* pixels */
".........................",
".........................",
"...                  ....",
"...                  ....",
"...                  ....",
"...                  ....",
"...    ..................",
"...    ..................",
"...    ..................",
"...    ..................",
"...                  ....",
"...                  ....",
"...                  ....",
"...                  ....",
".................    ....",
".................    ....",
".................    ....",
".................    ....",
".................    ....",
"...                  ....",
"...                  ....",
"...                  ....",
"...                  ....",
".........................",
"........................."
};
