/* XPM */
static char *d7e83dd5c74f4575f29928d10562ae4bmmb4adS1FtWnTi8T[] = {
/* columns rows colors chars-per-pixel */
"80 80 44 1 ",
"  c #3B3B09",
". c #613D24",
"X c #2A400C",
"o c #304811",
"O c #354F16",
"+ c #3A561A",
"@ c #3F5C1E",
"# c #40440F",
"$ c #434B14",
"% c #465218",
"& c #624527",
"* c #624D2A",
"= c #62542C",
"- c #635A2E",
"; c #645E30",
": c #476625",
"> c #4B632A",
", c #4E672C",
"< c #4E6E2A",
"1 c #526F30",
"2 c #557232",
"3 c #646432",
"4 c #656933",
"5 c #666D34",
"6 c #657036",
"7 c #667336",
"8 c #667838",
"9 c #677E3A",
"0 c #7F6F45",
"q c #7D7245",
"w c #7B7544",
"e c #757F43",
"r c #797844",
"t c #787B44",
"y c #866746",
"u c #896347",
"i c #826C46",
"p c #67803A",
"a c #67873D",
"s c #68823B",
"d c #67893E",
"f c #688A3F",
"g c #6F8641",
"h c #6D8A41",
/* pixels */
"598;.uX..*.&.u.X......u..X...u&&&.X..u....X....Xu&......u.X....u.X....uX.......u",
"9sp3&uX..*.*&y&X......u..X..*0&*&.X..u....X....Xu.&&....u.X....u.X....uX.......u",
"98p**yX.&&&&&i&X..*...u.. ..*0.&*=X..u....X....X0*.*&...u.X....u.X....uX.......u",
"75..&uX.**&&&i.o..*...u..o..&0.=..X..u....X....X0&&&*&..u.X....u&+&...uX.......u",
"-;&=.uX..&*.&u& *..=*.u..X..&0&**.X&.u....X....Xu&.=&...u.X...*u*X&...uX.......u",
"*-&**uX...&*.u.<*=....u.X*&..0.&&O&.=u....X....Xu&=*=...u.X...=u&>=...uX.*.....u",
"....&uX......u.,=.***.u.O-&-.0.&*>&3=r.;&.X.....X.&.....u.X..&;0&+&...uX..&*&..u",
".....uX.....&i.<*.*..*u.O**=&0.&&@=660*&.Xu.....X.......u.X...*0.X&...uo=.&.*&.u",
".....qX...*-7q3:1=&&.=u*X&***0&*++;36t**& q.....o.......u.X....uX&....uo..***..u",
".....w.X..&&=t3+2=&.=*u.@.&..0=&@>=0=r-.. q....*o.&.....u.X....uX.....uX=*20;=.u",
".....0.X..=*=i=<==*..*0*X.==.u.#&o;*;q=&.X0...*&X&&=...&u.X....uX.....uX=3;===.u",
".....u.X.&.=4g-+.&***.0.X....u..&o.r*q&.. 0....&O&&&.&=&u&X....uX.....uX&&3;3;=u",
".....u. ..&=-q4o*3=...u.X....u=..o..&u...Xu.....O&*.&=..u&X....uX.....0X*363**&u",
".....u. ...&.u.+*.....u.X....u.*+.=.&u...Xu.....O&*.;.*.u*X....uX....&uO&***&.&u",
".....u.>.....y. ......u.X....0.;>&...u...X.0....X&...*=0*;X....uX.....q& &=&=.u.",
".....u.>.....q. ......uX...&=0.=>....u...X.0....>.....*0&*X....uX....*q*o..*..u.",
".....u. >....u.X......uX....=u=.,....u...X.u....>....&&u;*O....u>..***u&>*....u.",
".....u. >....u.X......uX.....0.*X>...u...X.u....X>...*;u*.X....u>.*&..0&o&....u.",
".....0.X>....u.X......0 &....u..X>...u...X.u....u>...&=0*&O...=u>....=0*X.....u.",
".....0.X.>...u.X......0X#....u&.X>...u..X..u....uX.*.**0&=X..&=1O..*&.u.X.....u.",
".....u. .>...u.X.....&u>%*...u..X....u..X..u....uX&..&.u..>.&.&>o...&.0.X.....u.",
".....u. .....u.X......0X.O*..u.X.....u..X..u....uX.**&&0&.>.&.*0o&*...u.X.....u.",
".....0.X.....u.X.....=0X=&...u.X.....u..X..u....uX.&***u..>...&X*.&...u.X.....0.",
".....0.X.....u.X......0o=&...u.X.....u..X..u....uX.*;&&u..X>.**o*;....u.X.....u.",
".....u. .....u.>......uX.....u.X.....u..X..u....uX...=.0&.X>...X......u. .....u.",
".....u.. ....u.>......X......u.X.....u..X..u....uX...**u..X....X......u.>.....u.",
".....u..X....u.>&.....X......u.X.....u..X.&u&...uX.*.=&0..X....X......u.>.....u.",
".....u..X....u>o;&....X......u.X.....u..X**0*...uX..*=&u=.X....X......u.>.....u.",
".....0..X....0;X&=....X......u.X.....u..X.&u&=..uX..***0..X....X......u.>.....u.",
".....0..X....0>X&.&...X......uX......u..O&.0;&&.uX...*.0..X....X......u.X>....u.",
".....u..X....0.X.*....X......uX......u..X*=0&;&*u.X....u..X....X......u.X>....u.",
".....u.. ....0.X*.....X......uX......u.X.=.u**;*u.X....u..X....X......0.X>....u.",
".....u. X....u*o*.....X......uX......u.X...0=.-&u.X....u..X....X......u. .....u.",
".....u .X....u.X......X......u.......u.X..=u*...0.X....u..X....X......u.X.....u.",
".....u..X....u.X......X....&*0&......u.X...u*-.&u.X....u..X....X......u.X.....u.",
".....u&*1....u.X.....Xu....**0&&.....u&>...u..&.u.X....u..X....X......u.X.....u.",
".....u&&,&...u.X.....Xu....*&u.&....&u.,*..u....u.X....u..X...Xu.....&u.X.....u.",
".....0**1&&..u.X.....Xu...&*.0&&.....0*>&..u....u.X....u..X.*.Xu..&;*;0&X.....u.",
".....u&1O**..u.X.....Xu....;.u&.&.&&.u,O&..u....u.X....u..o*&&Xu..*-3&0*X.....0.",
".....0*1O&...u.X.....Xu.....*u&*.&&&=02X...u.&&.u.X....u&*X.*&ou..3-3&0-o.....0.",
".....u..X....0.X..&..Xu......0&.&&&*30>O....u.&&u.X...u..*O=.*X..&;*q30=X....u..",
".....u...X...0.o..*&.Xu......u..*=;*3q= ....0*.-=u.X..u.&.o&.;o...*=-=0. ....u..",
"...&&u...X...u.o&*.*&Xu......u*o&;;*3r&o-&.&0&&==0.X..u..*+&.*X.&**=--0..X...u..",
"..;.*0*..X...u&X&.;*.Xu......u&O.;*&=t+**&..0&*.&u.X..u...o...X>&.=&&&0..X...u..",
"..&.&0*..X.&&u.O.*==*ou......u*+.;=&=0+=3=*.0..*.u.X..u...X...X>...*..u..X...u..",
".*.&.0&.& -*;0.O.3*&O&u......uo*3&&3=r>;;-&.0.*..u.X..u...X...X>......u..X...u..",
"..*&&0.*.O;3&0&X==-.X=u......u,.&&.&*q>;&-..u....u.X..u...X&&*X.>.....0..X...u..",
"...&&u&..o3=-0*X&&&.>.u......u>.&...*0O&*&&.u....u.>..u...X&&.O&>.....0..X...u..",
"...=&u..&>**.q;O....o&u......uX>...=&0+&&...u....u>X..u...o&&*o*>.....u.. ...u..",
"..&&*0...O*r*q* ....X.u......uX>..&*.qX;&*..u....u>X..u...o&;&+&......u.. ...u..",
"..&&.u*..#...0.X......u......0 .>.**.uO*&...u....>.X..u...X&*O0.......u..X...u..",
".&*&&u*&.. ..0.X......u......X..>..&*uX;&...u....u.X..u...X..o0.......u..X...u..",
"...&=0*;.& ..u. ......u......X.....&*0o&....u....u.X..u...X..X0.......u..X...q..",
"..&.;0***&. .0.X......u......X.*....&uX.....u....u..X.u...X.. u.......u..X...0..",
".....0.*&*...u. ......u......O&**&...uX.....u....u..X&u&..X..Xu.......u..X...u..",
"....&0*&.....u.o......u.....&O&&.;...X......u....u..o*u&*.X..Xu.......u..X...u..",
".....u.......0.O%*....u.....X0-=.&...X......u....u..X=0&..X..Xu.......u......u..",
".....u.&.....0&O+&....u.....ou**&*&..X......u....u..X=u*&.X...u.......u......u..",
".....u...X...u.&.$.*..u.....Xu&&&*...X......u....u.&+.u&......u.......u......u..",
".....u... ...u=;&.*...u......u.......X......u....u..&=0&......u.......u......u..",
".....u...X...u&..&....0......u.......X......u....u....0.......u.......u......u..",
".....u...X...u.&*&.X.&u=&&...u......&X......u....u....u.......u.......u......u..",
".....u...X...u.....X.;u=&....u......&u.&....u....u....u.......u.......u......u..",
".....u...o...u.....X&&u.&.&..u.....*&u*=&...u....u....u.......u.......u......u..",
".....u... X..0.....X.*0.&&...u....&&&0&&&...u..&=0=...u.......u.......u......u..",
".....u.. .X..u.....X.&0..*...u......&0.&&...u..-&0*=..u.......u.......u......u..",
".....u.. .X..u.....X..u*.....u.....**u.&.....u.;*0=;.u........u.......u.....u...",
".....u....X..u....X...u......u.......0...X...u&&=u=;&u........u.......u.....u...",
".....u.... ..0*;..X...u....X.u.......u...X...u&=*0.&.u.&.&....u.......u.....u...",
".....u....X&.u.*&.X...u....X.u.......u...X...u.=*u-*.u*&&&....u.......u.....u...",
".....u.....&&u=&*.X...u....X.u.......u...X...u..&0...u3&&.=&..u.......u.....u...",
".....u.......u&**&X...u...X..u.......u...X...u...u...0&.3-&&*.u.......u.....u...",
".....u...&*&&0*&&.....u...X..u.......u....X..u.&.u...q3363;-**u.......u.....u...",
".....u...=&&*u........u...X..u.......u....X..u&.&u..=0;83333*.u.......u.....u...",
".....u.&.3.&=u........u...X..u.......u....X..0**&03-.06663*&&.u..*....u.....u...",
".....u.&3.*;&u........0...X..u.......u.... ..u.**u**&r;=33-;..u***=&..u.....0...",
".....u..;.3;*0&....=330..X...u.......u.......u&.*0&q=qq=33--..u**.*&..u.....u.1;",
".....u...3;*=0&...868ft..X...u.......0.......u&*.0=.*0*3****..0.&.....u...&&u3td",
".....u.*;**;*0&..33686e;.X...u.......u.......u..*u...0....&...u&=.&&*.u..&&.rff8",
".....u...&*0;u...98r8fhq.....u.......u.......0...u...0........u*-.&*..u..=&-rf89"
};
