/* XPM */
static char *_1e023f917a2470ef9e5a74539902fe1kWP7v3l3WLzDOUSu[] = {
/* columns rows colors chars-per-pixel */
"80 80 5 1 ",
"  c #3B3B09",
". c #613D24",
"X c #2A400C",
"o c #4B632A",
"O c #896347",
/* pixels */
".....O.......O........O......O.......O.......O...O...O........O.......O.....O...",
".....O.......O........O..X...O.......O.......O...O...O........O.......O.....O...",
".....O.......O........O..X...O.......O.......O...O...O........O.......O.....O...",
".....O.......O........O..X...O.......O.......O...O...O........O.......O.....O...",
".....O.......O........O...X..O.......O....X..O...O...O........O.......O.....O...",
".....O.......O........O...X..O.......O....X..O...O...O........O.......O.....O...",
".....O.......O........O...X..O.......O....X..O...O...O........O.......O.....O...",
".....O.......O........O...X..O.......O....X..O...O...O........O.......O.....O...",
".....O.......O....X...O...X..O.......O...X...O...O...O........O.......O.....O...",
".....O.......O....X...O....X.O.......O...X...O...O...O........O.......O.....O...",
".....O....X..O....X...O....X.O.......O...X...O...O...O........O.......O.....O...",
".....O....X..O....X...O....X.O.......O...X...O...O...O........O.......O.....O...",
".....O....X..O....X...O......O.......O...X...O...O...O........O.......O.....O...",
".....O.. .X..O.....X..O......O.......O.......O...O...O........O.......O.....O...",
".....O.. .X..O.....X..O......O.......O......O....O....O.......O.......O......O..",
".....O... X..O.....X..O......O.......O......O....O....O.......O.......O......O..",
".....O... ...O.....X..O......O.......O......O....O....O.......O.......O......O..",
".....O...X...O.....X..O......O.......O......O....O....O.......O.......O......O..",
".....O...X...O.....X..O......O.......X......O....O....O.......O.......O......O..",
".....O...X...O........O......O.......X......O....O....O.......O.......O......O..",
".....O...X...O........O......O.......X......O....O....O.......O.......O......O..",
".....O...X...O... ....O.....XO.......X......O....O..X.O.......O.......O......O..",
".....O.......O.X .....O.....XO.......X......O....O..X.O...X...O.......O......O..",
".....O.......O.X .....O.....XO.......X......O....O..X.O...X..XO.......O......O..",
".....O.......O. ......O......X.......X......O....O..X.O...X..XO.......O..X...O..",
".....O.......O. ......O......X.......OX.....O....O..X.O...X..XO.......O..X...O..",
".....O..... .O.X......O......X.......OX.....O....O..X.O...X..XO.......O..X...O..",
".....O.... ..O.X......O......X.......OX.....O....O.X..O...X..XO.......O..X...O..",
".....O.... ..O.X......O......X..o....OX.....O....O.X..O...X..XO.......O..X...O..",
".....O... ...O.X......O......OX.o....OX.....O....o.X..O...X..XO.......O..X...O..",
".....O... ...O.X....X.O......OXo.....OX.....O....OoX..O...X...X.......O..X...O..",
".....O...X...O.X....X.O......OXo.....OX.....O....OoX..O...X...X.o.....O..X...O..",
".....O...X...O.X....X.O......Oo......OX.....O....O.o..O...X...X.o.....O..X...O..",
".....O...X...O.X....X.O......Oo......OX.....O....O.X..O...X...X.o.....O..X...O..",
".....O...X...O.X....X.O......OX......OX.....O....O.X..O...X...Xo......O..X...O..",
".....O...X...O.X.....XO......O.X.....OX.....O....O.X..O...X...Xo......O..X...O..",
".....O...X...O.X.....XO......O.X.....OX.....O....O.X..O...X...Xo......O..X...O..",
".....O...X...O.X.....XO......O.X.....O.X....O....O.X..O...X...X.......O..X...O..",
".....O...X...O.X.....XO......O.......O.X....O....O.X..O...X...X.......O.X....O..",
".....O..X....O.X.....XO......O.......OoX....O...O.X...O...X...X.......O.X....O..",
".....O.oX....O.X.....XO......O.......OoX...O....O.X....O..X...XO......O.X.....O.",
".....O.oX....O.X.....XO......O.......OoX...O....O.X....O..X...XO......O.X.....O.",
".....O..o....O.X.....XO......O.......O.o...O....O.X....O..X...XO......O.X.....O.",
".....O..o....O.X.....XO......O.......O.o...O....O.X....O..X...XO......O.X.....O.",
".....O..o....O.X.....XO......O.......O.o...O....O.X....O..X....X......O.X.....O.",
".....O..X....O.X......X......O.......O.X...O....O.X....O..X....X......O.X.....O.",
".....O .X....O.X......X......O.......O.X...O....O.X....O..X....X......O.X.....O.",
".....O. X....O.X......X......OX......O.X...O....O.X....O..X....X......O.X.....O.",
".....O.. ....O.X......X......OX......O.X...O....O.X....O..X....X......O.Xo....O.",
".....O..X....O.X......X......OX......O..X..O....O.X....O..X....X......O.Xo....O.",
".....O..X....OoX......X......OX......O..X..O....OX.....O..X....X......O.Xo....O.",
".....O..X....OoX......X......O.X.....O..X..O....OX.....O..X....X......O.o.....O.",
".....O..X....OoX......X......O.X.....O..X..O....OX.....O..X....X......O.o.....O.",
".....O..X....O.o......X......O.X.....O..X..O....OX.....O..X....X......O.o.....O.",
".....O..X....O.o......X......O.X.....O..X..O....OX.....O..X....X......O.o.....O.",
".....O.X.....O.o......OX.....O.X.....O..X..O....OX.....O..Xo...X......O.X.....O.",
".....O.X.....O.X......OX.....O.X.....O..X..O....OX.....O..Xo...X......O.X.....O.",
".....O.X.....O.X......OX.....O.X.....O..X..O....OX.....O..o....X......O.X.....O.",
".....O.X.....O.X......OX. ...O.X.....O..X..O....OX.....O..o....OX.....O.X.....O.",
".....O.X.o...O.X......OX ....O..X....O..X..O....OX.....O..o....oX.....O.X.....O.",
".....O.X.o...O.X......OX ....O..Xo...O..X..O....OX.....O..X....oX.....O.X.....O.",
".....O.Xo....O.X......O .....O..Xo...O...X.O....Oo.....O..X....Oo.....O.X.....O.",
".....O.Xo....O.X......OX.....O..Xo...O...X.O....Xo.....O..X....Oo.....O.X.....O.",
".....O.Xo....O.X......OX.....O..o....O...X.O....o......O..X....Oo.....O.X.....O.",
".....O.o.....O.X......OX.....O..o....O...X.O....o......O..X....OX.....O.X.....O.",
".....O.o.....O.X......O.X....O..o....O...X.O....X......O..X....OX.....O.X.....O.",
".....O.X.....O.X......O.X....O..X....O...XO.....X.......O.X....OX.....OX.......O",
".....O.X.....O.X......O.X....O...X...O...XO.....X.......O.X....OX.....OX.......O",
".....O.X.....O.X......O.X....O...X...O...XO.....X.......O.X....OX.....OX.......O",
".....O.X.....O.X......O.X....O. .X...O...XO.....X.......O.X....OX.....OX.......O",
".....O.X.....O.Xo.....O.X....O.. X...O...XO.....X.......O.X....OX.....OX.......O",
".....OX......O.Xo.....O.X....O.. X...O...XO.....X.......O.X....OX.....OX.......O",
".....OX......O.o......O.X....O... ...O...XO.....X.......O.X....O.X....OX.......O",
".....OX......O.o......O.X....O...X...O....X.....X.......O.X....O.X....OX.......O",
".....OX......O.o......O.X....O...X...O....X....XO.......O.X....O.X....OX.......O",
".....OX......O.X......O..X...O....X..O....X....XO.......O.X....O.X....OX.......O",
".....OX......O.X......O..X...O....X..O....X....XO.......O.X....O.X....OX.......O",
".....OX......O.X......O..X...O....X..O....X....XO.......O.X....O.X....OX.......O",
".....OX......O.X......O..X...O....X..O....X....XO.......O.X....O.X....OX.......O",
".....OX......O.X......O..X...O....X..O....X....XO.......O.X....O.X....OX.......O"
};
