/* XPM */
static char *_4783a48ca634d0bf09a74386fbc7d60maaePxzWwwEQtNaH[] = {
/* columns rows colors chars-per-pixel */
"80 80 6 1 ",
"  c #3B3B09",
". c #613D24",
"X c #2A400C",
"o c #4B632A",
"O c #896347",
"+ c #6F8F44",
/* pixels */
"O.......XO....X.O....X.O.......OX....X....O..X....O...X..O......X.O......XO.....",
"O.......XO....X.O....X.O.......OX....X....O..X....O...X..O......X.O......XO.....",
"O.......XO....X.O....X.O.......OX....X....O..X....O...X..O......X.O......XO.....",
"O.......XO....X.O....X.O.......OX....X....O..X....O...X..O......X.O......XO.....",
"O.......XO....X.O....X.O.......OX....X....O..X....O...X..O......X.O......XO.....",
"O.......XO....X.O....X.O.......OX....X....O...X...O....X.O......o.O......XO.....",
"O.......XO....X.O....X.O.......X.....X....O...X...O....X.O......o.O......+O.....",
"O.......XO....X.O....X.O.......X.....OX...O... ...O....X.O......o.O......X+.....",
"O.......XO.....XO....X.O.......X.....OX...O...X ..O....X.O.....oX.O......X+.....",
"O.......XO.....XO....X.O.......X.....OX...O...X ..O....X.O.....oX.O.....X.O+....",
"O.......XO.....XO....X.O.......X.....OX...O...X. .O....X.O......X.O.....X.O.+...",
"O.......XO.....XO....X.O.......X.....OX...O...X...O....X.O......X.O.....X.O.....",
"O.......XO.....XO....X.O.......X.....OX...O...X...O....X.O......X.O.....X.O.....",
"O.......XO.....XO....X.O.......X.....OX...O....X..O....X.O......X.O.....X.O.....",
".O.....X.O.....XO....X..O......X....O.X...O....o..O....X.O......X.O.....o.O.....",
".O.....X.O.....XO....X..O......o....O.X...O....o..O.....XO......X.O.....o.O.....",
".O.....X.O.....oO....X..O......o....O.X...O....o..O.....XO......X.O....oX.O.....",
".O.....X.O.....oO....X..O.....oX....O.X...O...oX..O.....XO......X.O....oX.O.....",
".O.....X.O.....oO....X..O.....oO....O.X...O...oX..O..... O......X.O....oX.O.....",
".O.....X.O.....Xo....X..O.....XO....O..X..O...oX..O.... XO......X.O...o.X.O.....",
".O.....X.O.....Xo....o..O.....XO....O..X..O....X..O.... XO......X.O...o.X.O.....",
".O.....X.O.....XO....o..O.....XO....O..X..O.....X.O... .XO......X.O.....X.O.....",
".O.....X.O......X....o..O.....XO....O..X..O.....X.O.....XO......X.O.....X.O.....",
".O.....X.O......X...oX..O.....XO....O..X..O.....X.O.....XO......X.O.....X.O.....",
".O.....X.O......X...oX..O.....XO....O..X..O.....X.O.....XO......o.O.....X.O.....",
".O.....o.O......X....X..O.....XO....O..X..O.....X.O......X......o.O....X..O.....",
".O.....o.O......X....X..O.....XO....O..+..O.....X.O......X......o.O....X..O.....",
".O.....o.O......X....X..O.....XO....O..X+.O.....X.O......X......XoO....X..O.....",
".O.....o.O......X....X..O.....XX....O..X+.O.....X.O......X......XoO....X..O.....",
".O....oX.O......X....X..O.....XX....O..X.+O....X.XO......X......XoO....X..O.....",
".O....oX.O......X....X..O....X.OX...O..X..O....X.XO......X......X.O....X..O.....",
".O....oX.O......+....X..O....X.O....O...X.O....X.XO......X......X.O.... ..O.....",
".O.....X.O......+....X..O....X.O....O...X.O....X.XO......X......X.O....X .O.....",
".O.....X.O.....+X....X..O....X.O....O...X.O....X..O......X......X.O....X. O.....",
".O.....X.O.....+X....X..O....X.O....O...X.O....X..O......X......X.O....X..O.....",
".O.....X.O....+.X....X..O....X.O....O...o.O...X...O......OX.....X.O....o..O.....",
".O.....X.O....+.OX...X..O....X.O....O...o.O...X...O......OX.....X.O....o..O.....",
".O.....X.O...+..OX...X..O....X.O....O...o.O...X...O......OX.....X.O....o..O.....",
".O.....X.O...+..OX...X..O....X.O....O...XoO.......O......OX.....X.O....Xo.O.....",
".O.....+.O......OX...X..O....X.O....O...XoO.......O......OX.....X.O....Xo.O.....",
"..O....+.O.......X...X...O...X.O...O....XoO.......O......OX.....X.O....X..O.....",
"..O....+.O.......X...X...O..X.O....O....X.O.......O......OX....XX.O...X...O.....",
"..O...X+.O.......X...X...O..X.O....O....X.O.....X.O......OX....XX.O...X...O.....",
"..O...X.+O......oX...X...O..X.O....O.....XO.....X.O......OX...X.X.O...X...O.....",
"..O...X..O......oX...X...O..X.O....O.....XO.....X.O......OX.....X.O...X...O.....",
"..O...X..O......oX...X...O..X.O....O.....XO......XO......O.X....X.O...X...O.....",
"..O...X..O.....o.X...X...O..X.O....O.....XO......oO......O.X....X.O...X...O.....",
"..O...X..O.....o.X...X...O..o.O....O.....XO......oO......O.X....X.O...X...O.....",
"..O...X..O.....o.X...X...O..XoO....O.....XO.....oXO......O.X....X.O...X...O.....",
"..O...X..O.......X...X...O..XoO....O.....XO.....oXO......O.X....X.O... ...O.....",
"..O...X..O.......OX..X...O..X.o....O....XXO....o.XO......O......X.O... ...O.....",
"..O...X..O.......OX..X...O..X.O....O....XXO....o..X......O......X.O.. ....O.....",
"..O...X..O.......OX..X...O..X.O....O...X.XO.......X......O......X.O.. ....O.....",
"..O...X..O.......OX..X...+.X..O....O...X.XO.......X......O......X.O. .....O.....",
"..O...X..O.......OX..X...+.X..O....O..X..XO.......X......O...... .O.......O.....",
"..O...o..O.......OX..X...+.X..O....O..X...X.......X......O...... .O.......O.....",
"..O...o..O.......oX..X...+.X..O....O......X.......OX.....O..... X.O.......O.....",
"..O....o.O.......o...o...O+X..O....O......X.......OX.....O..... X.O.......O.....",
"..O....o.O......oO...o...O+X..O....O......X.......OX.....O.... ...O...X...O.....",
"..O....o.O......oO....o..O+...O....O......X.......O......O........O...X...O.....",
"..O.....oO......oO....o..O....O....O......X.......O......O........O...X...O.....",
"..O.....oO.....o.O....o..O....O....O......X.......O......O..X.....O...X...O.....",
"..O.....XO.....o.O.....o.O....O....O......O.......O......O..X.....O...X...O.....",
"..O.....XO.......O.....o.O....O....O......O.......O......O..X.....O... ...O.....",
"..O....X.o.......O.....X.O....O....O......O.......O......O..X.....O..X ...O.....",
"..O....X.o.......O.....XoO....O....O......O.......O......O..X.....O..X. ..O.....",
"...O..X..o.......O.....Xo.O...O...O.......O.......O......O.XX.....O..X. ..O.....",
"...O..X..Oo......O....X...O...O...O...X...O.......O......O.X.X....O..X....O.....",
"...O.....Oo......O....X...O...O...O...X...O.......O.X....OX..X....O..X....O.....",
"...O.....O.......O....X...O...O...O...X...O.......O.X....O...+....O..X....O.....",
"...O.....O.......O........O...O...O...X...O.......O.X....O...X+...O.......O.....",
"...O.....O.......O........O...O...O...X...O.......O..X...O...X.+..O.......O.....",
"...O.....O.......O........O...O...O..X....O.......O..X...O......+.O.......O.....",
"...O.....O.......O........O...O...O..X....O.......O..X...O.......+O.......O.....",
"...O.....O.......O........O...O...O..X....O.......O..X...O........+.......O.....",
"...O.....O.......O........O...O...O..X....O.......O..X...O........O.......O.....",
"...O.....O.......O........O...O...O.......O.......O...X..O........O.......O.....",
"...O.....O.......O........O...O...O.......O.......O...X..O........O.......O.....",
"...O.....O.......O........O...O...O.......O.......O...X..O........O.......O.....",
"...O.....O.......O........O...O...O.......O.......O......O........O.......O....."
};
